<?xml version="1.0" encoding="utf-8"?>
<!-- Generator: Adobe Illustrator 16.0.4, SVG Export Plug-In . SVG Version: 6.00 Build 0)  -->
<!DOCTYPE svg PUBLIC "-//W3C//DTD SVG 1.1//EN" "http://www.w3.org/Graphics/SVG/1.1/DTD/svg11.dtd">
<svg version="1.1" id="Layer_1" xmlns="http://www.w3.org/2000/svg" xmlns:xlink="http://www.w3.org/1999/xlink" x="0px" y="0px"
	 width="400px" height="130px" viewBox="-25.5 -24.858 400 130" enable-background="new -25.5 -24.858 400 130"
	 xml:space="preserve">
<g>
	<g>
		<path fill="#FFFFFF" d="M241.089,0.135l-0.542,0.509v3.038l0.551,0.551h3.816c1.459,0,2.791,0.592,3.958,1.76
			c1.168,1.169,1.76,2.5,1.76,3.957v38.4c0,7.484-1.901,13.313-5.653,17.325c-3.77,4.03-9.392,6.076-16.709,6.076
			c-2.682,0-5.246-0.438-7.625-1.298c-2.394-0.864-4.633-2.207-6.656-3.99c-2.053-1.808-3.692-4.304-4.879-7.419
			c-1.17-3.072-1.764-6.67-1.764-10.694V9.95c0-1.458,0.592-2.788,1.76-3.957c1.168-1.168,2.498-1.76,3.957-1.76h3.689l0.55-0.55
			V0.644l-0.541-0.509h-33.723l-0.542,0.509v3.038l0.551,0.551h3.809c1.369,0,2.646,0.546,3.793,1.624
			c1.133,1.068,1.779,2.294,1.92,3.645l0.004,0.051v37.415c0,10.363,2.846,18.621,8.455,24.546
			c5.594,5.907,13.558,8.903,23.67,8.903c10.111,0,18.087-3.006,23.699-8.935c5.629-5.943,8.482-14.19,8.482-24.516V9.604
			l0.005-0.103c0.144-1.352,0.788-2.579,1.921-3.644c1.146-1.078,2.422-1.624,3.791-1.624h3.752l0.553-0.55V0.644l-0.541-0.509
			H241.089"/>
	</g>
	<g>
		<path fill="#FFFFFF" d="M185.421,74.648c-1.26,0-2.338-0.272-3.202-0.812c-0.894-0.553-1.687-1.629-2.429-3.291l-0.034-0.072
			l-15.92-60.052c-0.487-1.939-0.548-2.533-0.548-2.833c0-2.131,1.307-3.356,3.586-3.356h2.22l0.552-0.55V0.644l-0.542-0.509h-21.54
			l-0.542,0.508v3.039l0.551,0.551h2.366c2.28,0,3.587,1.225,3.587,3.356c0,0.74-0.228,1.703-0.714,2.984L133.27,56.111
			l-18.588-45.576c-0.47-1.236-0.698-2.2-0.698-2.946c0-2.131,1.348-3.356,3.701-3.356h2.31l0.55-0.55V0.644l-0.541-0.509H97.096
			l-0.542,0.509v3.038l0.551,0.551h2.321c2.279,0,3.587,1.225,3.587,3.357c0,0.59-0.152,1.488-0.483,2.85L86.564,70.393
			c-0.664,2.53-2.356,3.963-4.901,4.205c-0.881-0.101-1.655-0.354-2.308-0.761c-0.892-0.554-1.686-1.631-2.428-3.294l-26.558-59.97
			c-0.52-1.212-0.772-2.188-0.772-2.984c0-3.029,1.978-3.356,2.827-3.356h0.766l0.551-0.55V0.644l-0.542-0.509H32.451L31.91,0.644
			v3.038l0.55,0.551h0.746c0.85,0,2.829,0.327,2.829,3.356c0,0.798-0.252,1.773-0.777,2.995L8.711,70.531
			c-1.452,3.402-3.867,4.117-5.639,4.117h-2.53L0,75.162v3.033l0.551,0.552h22.166l0.551-0.552v-3.033l-0.542-0.514h-3.467
			c-3.757,0-4.163-2.51-4.163-3.588c0-0.683,0.216-1.509,0.653-2.517l2.72-6.451h40.917l2.72,6.451
			c0.485,1.151,0.711,1.951,0.711,2.517c0,1.078-0.411,3.588-4.22,3.588h-3.461l-0.543,0.514v3.033l0.552,0.552h45.085l0.551-0.552
			v-3.033l-0.542-0.514h-3.454c-3.756,0-4.161-2.515-4.161-3.594c0-0.84,0.133-1.664,0.378-2.395l11.685-43.58l22.181,52.515h3.984
			l22.231-52.117l11.819,43.211c0.439,1.76,0.489,2.395,0.489,2.718c0,1.21-0.571,3.239-4.392,3.239h-3.367l-0.541,0.514v3.033
			l0.551,0.553h30.346l0.552-0.551v-3.034l-0.543-0.515h-2.576 M21.73,55.614l17.248-38.945l16.578,38.945H21.73z"/>
	</g>
	<g>
		<path fill="#FFFFFF" d="M347.613,74.648h-3.818c-2.135,0-3.857-1.075-5.079-3.138l-16.487-23.863l-11.645-2.395l5.355-0.863
			c7.404-1.195,11.134-2.294,15.048-6.011c3.771-3.584,6.026-9.712,6.026-16.393c0-7.353-2.582-13.046-7.672-16.919
			c-4.971-3.78-10.313-4.933-22.875-4.933h-34.56l-0.542,0.509v3.038l0.551,0.551h3.734c1.457,0,2.789,0.591,3.959,1.76
			c1.168,1.169,1.76,2.499,1.76,3.957v58.98c0,1.457-0.592,2.788-1.76,3.957c-1.17,1.168-2.502,1.76-3.959,1.76h-3.743l-0.542,0.515
			v3.034l0.55,0.551h33.672l0.552-0.551v-3.034l-0.543-0.515h-3.736c-1.459,0-2.79-0.592-3.956-1.76
			c-1.169-1.169-1.763-2.501-1.763-3.957V44.839h6.955l24.31,33.908h20.198l0.552-0.552v-3.033L347.613,74.648 M296.143,39.745V9.95
			c0-1.457,0.592-2.788,1.762-3.957c1.166-1.168,2.498-1.76,3.957-1.76h3.168c6.043,0,10.938,1.775,13.779,5
			c3.209,3.639,4.907,8.05,4.907,12.754c0,5.837-1.7,10.907-4.545,13.564c-3.907,3.648-10.538,4.194-14.144,4.194H296.143z"/>
	</g>
</g>
</svg>
