<?xml version="1.0" encoding="UTF-8" standalone="no"?>
<svg width="327px" height="45px" viewBox="0 0 327 45" version="1.1" xmlns="http://www.w3.org/2000/svg" xmlns:xlink="http://www.w3.org/1999/xlink" xmlns:sketch="http://www.bohemiancoding.com/sketch/ns">
    <!-- Generator: Sketch 3.4.4 (17249) - http://www.bohemiancoding.com/sketch -->
    <title>carmen-marc-valvo-logo</title>
    <desc>Created with Sketch.</desc>
    <defs></defs>
    <g id="Page-1" stroke="none" stroke-width="1" fill="none" fill-rule="evenodd" sketch:type="MSPage">
        <g id="Desktop" sketch:type="MSArtboardGroup" transform="translate(-593.000000, -1543.000000)" fill="#FFFFFF">
            <g id="Our-Brands" sketch:type="MSLayerGroup" transform="translate(42.000000, 557.000000)">
                <g id="Carmen" transform="translate(479.492649, 926.000000)" sketch:type="MSShapeGroup">
                    <g id="carmen-marc-valvo-logo" transform="translate(70.383430, 60.000000)">
                        <path d="M317.392096,20.7144 C311.80897,20.7144 306.70451,15.57 306.70451,9.927 C306.70451,5.1264 311.316399,2.0376 315.409897,2.0376 C319.805294,2.0376 326.741002,5.94 326.741002,12.483 C326.741002,17.0874 322.162878,20.7144 317.392096,20.7144 L317.392096,20.7144 Z M317.485446,0.9756 C309.024358,0.9756 305.002362,7.4034 305.002362,12.4542 C305.002362,17.4276 309.085929,21.7764 315.53304,21.7764 C323.610797,21.7764 328.145225,16.2126 328.145225,10.0152 C328.145225,5.0418 323.952418,0.9756 317.485446,0.9756 L317.485446,0.9756 Z M304.364801,2.7378 L304.237686,2.9358 L295.907685,21.7764 L295.629621,21.7764 L287.696855,4.005 C286.707742,1.7568 286.08607,1.4742 285.186335,1.4742 L285.186335,1.2798 L290.330517,1.2798 L290.330517,1.4742 C289.895546,1.4472 289.659192,1.5642 289.659192,1.9566 C289.659192,2.2068 289.810141,2.6028 289.957117,2.8818 L296.652499,17.955 L303.314117,2.9124 C303.314117,2.8818 303.341923,2.826 303.371716,2.772 C303.429314,2.6028 303.655738,2.1276 303.655738,1.8972 C303.655738,1.7892 303.590194,1.4184 302.84538,1.4742 L302.84538,1.2798 L306.192078,1.2798 L306.192078,1.4742 C305.040099,1.4742 304.734229,2.07 304.364801,2.7378 L304.364801,2.7378 Z M289.686998,16.6104 L289.895546,16.6104 L289.895546,21.4686 L274.510666,21.4686 L274.510666,21.276 C276.028101,21.276 276.20487,20.7144 276.20487,19.6974 L276.20487,3.1554 C276.20487,1.6488 275.748051,1.5048 274.510666,1.4742 L274.510666,1.2798 L280.493013,1.2798 L280.493013,1.4742 C278.784906,1.4472 278.784906,2.1834 278.784906,3.2994 L278.784906,17.4816 C278.784906,19.9854 280.026263,20.799 283.05716,20.799 L285.784172,20.799 C288.852806,20.799 289.530091,19.3338 289.686998,16.6104 L289.686998,16.6104 Z M258.710677,11.6118 L261.719726,4.734 L264.718844,11.6118 L258.710677,11.6118 L258.710677,11.6118 Z M270.941517,19.3626 L270.824333,19.062 C270.762762,18.972 270.728997,18.8622 270.728997,18.8352 L262.768424,0.9756 L262.402968,0.9756 L254.311308,19.449 C253.880309,20.4354 253.534715,21.249 252.207953,21.276 L252.207953,21.4686 L255.520886,21.4686 L255.520886,21.276 C255.268643,21.276 254.776072,21.3012 254.776072,20.826 C254.776072,20.6334 254.811823,20.4876 254.962772,20.1762 C254.962772,20.151 255.056122,19.9512 255.117694,19.818 L258.492198,12.1698 L265.006838,12.1698 L268.214504,19.3626 C268.254228,19.3986 268.319772,19.5624 268.37737,19.6758 C268.528319,20.0106 268.722964,20.4876 268.722964,20.7684 C268.722964,20.826 268.683241,21.276 268.001984,21.276 L268.001984,21.4686 L273.21171,21.4686 L273.21171,21.276 C271.815432,21.276 271.259304,20.1222 270.941517,19.3626 L270.941517,19.3626 Z M255.01044,2.9358 L246.672495,21.7764 L246.398403,21.7764 L238.465637,4.005 C237.47851,1.7568 236.85088,1.4742 235.967034,1.4742 L235.967034,1.2798 L241.099299,1.2798 L241.099299,1.4742 C240.656383,1.4472 240.416057,1.5642 240.416057,1.9566 C240.416057,2.2068 240.570978,2.6028 240.729872,2.8818 L247.417309,17.955 L254.078926,2.9124 C254.078926,2.8818 254.106733,2.826 254.136525,2.772 C254.198096,2.6028 254.42452,2.1276 254.42452,1.8972 C254.42452,1.7892 254.35699,1.4184 253.61019,1.4742 L253.61019,1.2798 L256.96086,1.2798 L256.96086,1.4742 C255.816826,1.4742 255.503011,2.07 255.133583,2.7378 L255.01044,2.9358 L255.01044,2.9358 Z M231.136666,18.5562 L231.323366,18.6066 L229.782098,20.7684 C225.899133,21.555 224.824615,21.7764 221.849331,21.7764 C217.144092,21.7764 214.599807,20.826 212.861908,19.6758 C210.452682,18.0738 208.812105,15.1146 208.812105,11.808 C208.812105,6.6132 213.082373,0.9756 221.503737,0.9756 C224.29828,0.9756 226.151377,1.593 227.827705,2.2068 C227.859484,2.2068 228.040226,2.2644 228.072004,2.2914 L228.902224,4.4244 L228.697648,4.4244 C227.734355,3.5586 225.09672,1.5048 221.070752,1.5048 C214.262158,1.5048 210.913474,5.913 210.913474,9.8946 C210.913474,13.5486 213.700072,21.249 222.614007,21.249 C225.968649,21.249 229.585467,20.1762 231.136666,18.5562 L231.136666,18.5562 Z M199.081854,10.7136 C198.33704,11.0772 196.724269,11.25 195.917884,11.25 L193.598036,11.25 L193.598036,1.8396 L195.429286,1.8396 C197.562433,1.8396 198.742219,2.2644 199.637982,3.0798 C200.84756,4.2012 201.34013,5.7456 201.34013,7.0074 C201.34013,8.9694 200.164317,10.1808 199.081854,10.7136 L199.081854,10.7136 Z M175.104799,11.6118 L178.115834,4.734 L181.114952,11.6118 L175.104799,11.6118 L175.104799,11.6118 Z M211.372279,20.547 C211.03463,20.6874 210.665203,20.826 209.858817,20.826 C208.059346,20.826 206.639234,19.6974 206.17447,19.1988 C204.440543,17.3952 201.802908,13.9122 201.491079,13.4046 L199.788931,11.0214 C201.802908,10.0404 203.699701,8.1018 203.699701,5.7456 C203.699701,3.5262 202.361022,2.1834 200.472174,1.6488 C199.20301,1.2798 198.148354,1.2798 195.739128,1.2798 L189.419133,1.2798 L189.419133,1.4742 C190.465845,1.5048 191.021972,1.62 191.021972,3.2994 L191.021972,19.3626 C191.021972,20.8746 190.847189,21.2058 189.50851,21.2688 C188.18572,21.2148 187.643496,20.1042 187.343584,19.3626 L187.220441,19.062 C187.154898,18.972 187.127091,18.8622 187.127091,18.8352 L179.162546,0.9756 L178.795104,0.9756 L170.709403,19.449 C170.334016,20.3112 170.024174,21.0384 169.056908,21.2256 C168.359762,21.1086 168.07574,20.7702 167.867192,19.422 L165.533441,4.1148 C165.509607,3.8646 165.448036,3.4182 165.448036,3.1554 C165.448036,2.349 165.722128,1.5336 167.20977,1.4742 L167.20977,1.2798 L163.710136,1.2798 L155.842913,17.7894 L148.009455,1.2798 L143.792815,1.2798 L143.792815,1.4742 C144.130464,1.4742 145.246692,1.4184 145.902128,2.7108 L146.245736,3.3876 L143.697478,19.6974 C143.451193,21.2148 143.169157,21.249 142.18203,21.276 L142.18203,21.4686 L145.592285,21.4686 L145.592285,21.276 C144.569407,21.276 144.569407,20.7684 144.569407,20.4876 C144.569407,20.2356 144.569407,19.9512 144.632965,19.6974 L146.889255,4.7628 L146.954799,4.7628 L154.909413,21.4686 L155.070293,21.4686 L162.995115,4.7628 L163.062645,4.7628 L165.318935,19.5876 C165.412285,20.1762 165.412285,20.259 165.412285,20.4048 C165.412285,20.799 165.289142,21.3012 164.421186,21.276 L164.421186,21.4686 L171.916995,21.4686 L171.916995,21.276 C171.672696,21.276 171.17218,21.3012 171.17218,20.826 C171.17218,20.6334 171.205945,20.4876 171.356894,20.1762 C171.356894,20.151 171.454217,19.9512 171.513802,19.818 L174.888306,12.1698 L181.393016,12.1698 L184.612599,19.3626 C184.652322,19.3986 184.709921,19.5624 184.76752,19.6758 C184.922442,20.0106 185.113114,20.4876 185.113114,20.7684 C185.113114,20.826 185.075377,21.276 184.396106,21.276 L184.396106,21.4686 L195.177042,21.4686 L195.177042,21.276 C194.120399,21.249 193.598036,21.132 193.598036,19.5354 L193.598036,11.808 L195.397507,11.808 C195.544484,11.808 196.354841,11.808 196.541541,11.7792 L197.375733,11.7486 L199.602231,14.8662 C199.602231,14.895 199.663802,14.9526 199.663802,15.012 C199.735304,15.0948 201.775102,17.8506 203.443485,19.6974 C205.002629,21.4164 206.639234,21.663 207.807103,21.663 C209.114003,21.663 210.265982,21.4164 210.818138,21.2148 C211.437823,20.9916 211.876767,20.7684 212.520286,20.3202 L212.430909,20.0412 C212.244208,20.1222 211.876767,20.349 211.372279,20.547 L211.372279,20.547 Z M129.250071,1.2996 L133.554104,1.2996 L133.554104,1.4958 C132.314733,1.521 131.81819,1.8036 131.81819,3.3516 L131.81819,21.7476 L114.045933,4.5846 L114.045933,19.5228 C114.045933,21.123 114.449126,21.1824 115.658704,21.2958 L115.658704,21.4866 L111.382478,21.4866 L111.382478,21.2958 C113.084626,21.2346 113.084626,20.7918 113.084626,19.161 L113.084626,5.4828 C113.084626,4.1112 113.084626,1.386 109.984214,1.4958 L109.984214,1.2996 L114.171062,1.2996 L130.860856,17.4114 L130.860856,3.1518 C130.860856,1.665 130.209392,1.4958 129.250071,1.4958 L129.250071,1.2996 L129.250071,1.2996 Z M107.769633,18.7128 L107.980167,18.7128 L107.980167,21.4866 L92.742264,21.4866 L92.742264,21.2958 C93.6122068,21.2346 94.3272284,21.2112 94.3272284,19.8612 L94.3272284,3.546 C94.3272284,2.0592 94.2596985,1.521 92.742264,1.521 L92.742264,1.2996 L106.742783,1.2996 L106.742783,4.0824 L106.522318,4.0824 C105.874826,1.9746 105.874826,1.9746 104.234249,1.9746 L96.891375,1.9746 L96.891375,11.0394 L103.707914,11.0394 C104.573884,11.0394 105.195556,11.0394 105.288906,10.3698 L105.507384,10.3698 L105.507384,12.276 L105.288906,12.276 C105.131998,11.6046 104.605663,11.6046 103.894614,11.6046 L96.891375,11.6046 L96.891375,17.8416 C96.891375,20.7072 97.7017327,20.817 99.9917878,20.817 L103.924406,20.817 C106.621626,20.817 107.453832,20.817 107.769633,18.7128 L107.769633,18.7128 Z M52.0098712,10.737 C51.2650571,11.097 49.6562587,11.2662 48.8498733,11.2662 L46.522081,11.2662 L46.522081,1.8612 L48.3553167,1.8612 C50.4944228,1.8612 51.670236,2.2878 52.565999,3.1032 C53.7755771,4.2192 54.2681475,5.7654 54.2681475,7.0308 C54.2681475,8.991 53.0963067,10.1988 52.0098712,10.737 L52.0098712,10.737 Z M88.1542092,19.4436 L85.8363478,4.1382 C85.8005967,3.8808 85.7410116,3.4344 85.7410116,3.1824 C85.7410116,2.3652 86.0210617,1.5552 87.5106898,1.4958 L87.5106898,1.2996 L84.0050982,1.2996 L76.1398614,17.811 L68.3044172,1.2996 L64.0877764,1.2996 L64.0877764,1.4958 C64.431384,1.4958 65.5456259,1.4436 66.1951037,2.7306 L66.5387113,3.4074 L63.9964126,19.7208 C63.9169657,20.196 63.8395051,20.5254 63.7382103,20.7522 C63.4978837,20.8044 63.199958,20.8458 62.7868345,20.8458 C60.991336,20.8458 59.5672514,19.7208 59.1044736,19.2168 C57.3626017,17.4114 54.7329115,13.9338 54.425055,13.4262 L52.7248927,11.0394 C54.7329115,10.0602 56.62176,8.1216 56.62176,5.7654 C56.62176,3.546 55.2890393,2.2032 53.4061493,1.665 C52.1349999,1.2996 51.0763709,1.2996 48.6691317,1.2996 L42.3471497,1.2996 L42.3471497,1.4958 C43.3978342,1.521 43.9519758,1.638 43.9519758,3.321 L43.9519758,19.3878 C43.9519758,20.9304 43.7652758,21.2346 42.3471497,21.2958 L42.3471497,21.4866 L48.1050592,21.4866 L48.1050592,21.2958 C47.0543748,21.267 46.522081,21.15 46.522081,19.5552 L46.522081,11.8296 L48.323538,11.8296 C48.4804455,11.8296 49.2848447,11.8296 49.4715448,11.7972 L50.3097089,11.7684 L52.5342203,14.8878 C52.5342203,14.9166 52.5977778,14.9724 52.5977778,15.0354 C52.6593491,15.1164 54.7070913,17.8686 56.3734886,19.7208 C57.9187296,21.4362 59.5672514,21.6882 60.7410784,21.6882 C61.4978096,21.6882 62.1949555,21.5964 62.7689589,21.4866 L65.8892334,21.4866 L65.8892334,21.2958 C64.8663554,21.2958 64.8663554,20.7918 64.8663554,20.5074 C64.8663554,20.2554 64.8663554,19.9728 64.9259405,19.7208 L67.186203,4.7844 L67.2497605,4.7844 L75.216292,21.4866 L75.3731995,21.4866 L83.2960352,4.7844 L83.3576065,4.7844 L85.6198551,19.611 C85.711219,20.196 85.711219,20.286 85.711219,20.4246 C85.711219,20.817 85.5900626,21.3228 84.7240921,21.2958 L84.7240921,21.4866 L89.7352012,21.4866 L89.7352012,21.2958 C88.7460881,21.2112 88.4044667,21.0132 88.1542092,19.4436 L88.1542092,19.4436 Z M26.4855889,11.6334 L29.4906655,4.7556 L32.4977283,11.6334 L26.4855889,11.6334 L26.4855889,11.6334 Z M38.7223879,19.3878 L38.5972591,19.0818 C38.5337016,18.9936 38.5058952,18.8856 38.5058952,18.855 L30.5453223,0.9954 L30.1679498,0.9954 L22.1815566,19.2438 C20.5191316,20.4858 17.9172477,21.267 15.0571616,21.267 C6.13528191,21.267 3.34868414,13.5666 3.34868414,9.918 C3.34868414,5.931 6.68942359,1.521 13.5039759,1.521 C17.5319305,1.521 20.1596346,3.573 21.1268999,4.4478 L21.3453787,4.4478 L20.5072145,2.3094 C20.477422,2.2878 20.2887357,2.2248 20.2629155,2.2248 C18.5865873,1.6146 16.7295175,0.9954 13.9429197,0.9954 C5.51361042,0.9954 1.24135681,6.6348 1.24135681,11.8296 C1.24135681,15.1362 2.88193398,18.0918 5.29711779,19.692 C7.03104498,20.8458 9.57532991,21.7926 14.2825549,21.7926 C16.7692409,21.7926 17.8060221,21.9114 20.3423624,21.4866 L23.2997708,21.4866 L23.2997708,21.2958 C23.0495133,21.2958 22.5589291,21.3228 22.5589291,20.8458 C22.5589291,20.6514 22.580777,20.5074 22.7396706,20.196 C22.7396706,20.1726 22.8350068,19.9728 22.8886334,19.836 L26.2671101,12.195 L32.7777784,12.195 L36.0013337,19.3878 C36.0291401,19.4166 36.0887252,19.584 36.1522827,19.692 C36.307204,20.0322 36.4879456,20.5074 36.4879456,20.7918 C36.4879456,20.8458 36.4601392,21.2958 35.7828549,21.2958 L35.7828549,21.4866 L40.9866227,21.4866 L40.9866227,21.2958 C39.5903445,21.2958 39.0322305,20.142 38.7223879,19.3878 L38.7223879,19.3878 Z" id="Fill-3"></path>
                        <path d="M222.270399,30.4812 L236.793281,40.1346 L236.793281,30.6864 L239.178672,30.6864 L239.178672,44.1 L239.017792,44.1 L224.447243,34.2774 L224.447243,43.7868 L222.063837,43.7868 L222.063837,30.4812 L222.270399,30.4812 L222.270399,30.4812 Z M206.86963,42.3378 C211.525215,42.3378 214.490568,40.68 214.490568,37.2798 C214.490568,33.9624 211.525215,32.157 206.86963,32.157 C202.216032,32.157 199.248692,33.9228 199.248692,37.2366 C199.248692,40.6368 202.216032,42.3378 206.86963,42.3378 L206.86963,42.3378 Z M206.915312,44.0388 C201.358006,44.0388 196.748103,41.895 196.748103,37.2798 C196.748103,32.7438 201.403688,30.456 206.915312,30.456 C212.405088,30.456 216.991157,32.7006 216.991157,37.2366 C216.991157,41.8554 212.47659,44.0388 206.915312,44.0388 L206.915312,44.0388 Z M189.059636,30.6864 L191.447013,30.6864 L191.447013,43.7868 L189.059636,43.7868 L189.059636,30.6864 Z M177.019468,38.034 L172.457233,37.845 C168.70337,37.656 166.550361,36.8172 166.550361,34.4448 C166.550361,31.8636 169.539548,30.456 174.47121,30.456 C178.733533,30.456 181.003726,31.0878 182.834976,31.9878 L181.859766,33.6276 C180.286719,32.85 178.338285,32.1786 174.47121,32.1786 C170.695499,32.1786 168.913904,32.9346 168.913904,34.2774 C168.913904,35.4942 170.165192,35.8722 172.828647,35.9766 L177.390882,36.1674 C181.212274,36.3348 183.712864,37.008 183.712864,39.735 C183.712864,42.822 179.915305,44.0388 175.212052,44.0388 C170.743168,44.0388 168.053892,43.2828 166.063749,42.1074 L167.269355,40.5324 C168.63584,41.3532 171.090747,42.3162 175.212052,42.3162 C179.522043,42.3162 181.279804,41.3316 181.279804,39.9024 C181.279804,38.5164 179.982835,38.1618 177.019468,38.034 L177.019468,38.034 Z M152.704763,44.0388 C146.865421,44.0388 143.832538,42.255 143.832538,38.2212 L143.832538,30.6864 L146.219915,30.6864 L146.219915,37.9908 C146.219915,41.058 147.816797,42.3378 152.657095,42.3378 C157.497394,42.3378 159.096261,41.0778 159.096261,38.034 L159.096261,30.6864 L161.481653,30.6864 L161.481653,38.1816 C161.481653,42.21 158.540134,44.0388 152.704763,44.0388 L152.704763,44.0388 Z M136.007025,36.4176 L136.007025,38.2032 L126.441626,38.2032 L126.441626,43.7868 L124.054248,43.7868 L124.054248,30.6864 L139.063742,30.6864 L139.063742,32.5548 L126.441626,32.5548 L126.441626,36.4176 L136.007025,36.4176 L136.007025,36.4176 Z M100.988846,30.4812 L115.511727,40.1346 L115.511727,30.6864 L117.897118,30.6864 L117.897118,44.1 L117.734252,44.1 L103.165689,34.2774 L103.165689,43.7868 L100.780298,43.7868 L100.780298,30.4812 L100.988846,30.4812 L100.988846,30.4812 Z M92.0034084,30.6864 L94.3887997,30.6864 L94.3887997,43.7868 L92.0034084,43.7868 L92.0034084,30.6864 Z" id="Fill-4"></path>
                    </g>
                </g>
            </g>
        </g>
    </g>
</svg>