<?xml version="1.0" encoding="UTF-8" standalone="no"?>
<svg width="327px" height="34px" viewBox="0 0 327 34" version="1.1" xmlns="http://www.w3.org/2000/svg" xmlns:xlink="http://www.w3.org/1999/xlink" xmlns:sketch="http://www.bohemiancoding.com/sketch/ns">
    <!-- Generator: Sketch 3.4.4 (17249) - http://www.bohemiancoding.com/sketch -->
    <title>cynthia-rowley-logo</title>
    <desc>Created with Sketch.</desc>
    <defs></defs>
    <g id="Page-1" stroke="none" stroke-width="1" fill="none" fill-rule="evenodd" sketch:type="MSPage">
        <g id="Desktop" sketch:type="MSArtboardGroup" transform="translate(-592.000000, -1057.000000)" fill="#FFFFFF">
            <g id="Our-Brands" sketch:type="MSLayerGroup" transform="translate(42.000000, 557.000000)">
                <g id="Cynthia-Rowley" transform="translate(479.492649, 450.000000)" sketch:type="MSShapeGroup">
                    <g id="cynthia-rowley-logo" transform="translate(70.804980, 49.970494)">
                        <path d="M22.2633355,7.93489806 C16.9534914,3.44692305 12.6226858,3.84148174 12.6226858,3.84148174 C8.57407366,4.02262478 5.96752762,6.96984289 5.96752762,6.96984289 C-0.13015453,14.6403137 6.27160546,22.2733067 6.12762921,22.0911226 C8.9127058,25.725435 14.0382603,25.745215 14.0382603,25.745215 C20.1785594,25.9513433 23.2780801,20.2193112 23.2780801,20.2193112 C24.8537562,19.032512 25.8846262,21.3280315 25.8846262,21.3280315 C22.3462659,29.0744992 14.1338605,28.6570374 14.1338605,28.6570374 C-0.18198598,28.0469809 0.0863857502,14.064612 0.0783230801,14.5497422 C0.282193451,1.66672419 12.4717987,1.20657922 12.4717987,1.20657922 C19.0094723,1.23156447 23.006253,5.1448788 23.006253,5.1448788 C23.006253,5.1448788 25.1797185,6.84699876 24.1235087,7.79331499 C24.1235087,7.79331499 23.2538921,8.65322391 22.4096154,8.04212641 L22.2633355,7.93489806" id="Fill-3"></path>
                        <path d="M33.6489774,28.7163773 L33.6489774,19.5873927 L24.7212981,1.29194549 L27.2138149,1.29194549 L35.0380603,17.1117711 L45.1555593,1.24301604 L48.2827235,1.25759077 L37.2426246,18.8794773 L37.2426246,28.7371984 L33.6489774,28.7163773" id="Fill-4"></path>
                        <path d="M70.7361077,1.25134446 L70.7361077,28.7673889 L68.569553,28.7673889 L53.8724574,7.63819825 L53.8724574,28.6414216 L50.1521111,28.6528732 L50.1521111,1.18575818 L52.5789748,1.18784029 L67.8634935,23.2289924 L67.8634935,1.26071393 L70.7361077,1.25134446" id="Fill-5"></path>
                        <path d="M86.9006092,28.7663478 L86.9006092,2.71089931 L96.7543438,2.71089931 L96.7658619,1.20762028 C97.3486778,1.20762028 84.9759347,1.27841181 84.9759347,1.27841181 C84.9759347,1.27841181 72.5686374,1.20762028 73.152605,1.20762028 L73.1641231,2.71089931 L83.1030917,2.71089931 L83.1030917,28.7663478 L86.9639588,28.7663478" id="Fill-6"></path>
                        <path d="M120.245509,28.7882099 L120.245509,1.22948237 L116.604637,1.20241502 L116.604637,16.5339873 L102.704594,16.5339873 L102.704594,1.2482213 L99.7893632,1.22948237 L99.7893632,28.7882099 L102.701139,28.7757173 L102.701139,18.2777493 L116.609245,18.2777493 L116.609245,28.7757173 L120.245509,28.7882099" id="Fill-7"></path>
                        <path d="M127.470813,28.7663478 L127.470813,1.33462862 L127.353328,1.27841181 L124.072973,1.28569917 L124.072973,28.7663478 L127.470813,28.7663478" id="Fill-8"></path>
                        <path d="M140.773067,15.0879661 L148.92673,15.0879661 L145.367637,6.09015398 L140.773067,15.0879661 L140.773067,15.0879661 Z M130.412536,28.7205415 L144.487654,1.62612316 C144.487654,1.62612316 145.540408,0.646493269 146.404266,1.62612316 L155.994236,24.9186198 C155.994236,24.9186198 158.102048,31.3533619 164.577524,31.9831984 C164.577524,31.9831984 168.466035,32.757741 172.207113,29.8896429 C172.207113,29.8896429 174.086867,29.8219745 173.844987,31.4959861 C173.844987,31.4959861 170.541596,34.2943337 164.404752,33.8550098 C164.404752,33.8550098 156.446897,33.7415351 153.68025,26.2480431 L149.587869,16.9452028 L140.08774,16.9254228 L133.775821,28.749691 L130.412536,28.7205415 L130.412536,28.7205415 Z" id="Fill-9"></path>
                        <path d="M175.581917,7.41749523 L175.637204,18.2236146 C175.637204,18.2236146 176.513731,20.8824613 182.436338,21.576843 C182.436338,21.576843 188.639987,21.1437654 191.378991,16.8952323 C191.378991,16.8952323 193.864597,11.2090065 190.806541,6.88968189 C190.175349,5.99854141 187.428283,3.5801777 184.39096,3.37613151 C184.39096,3.37613151 179.901204,2.83062029 175.581917,7.41749523 L175.581917,7.41749523 Z M171.019597,28.7361573 L171.019597,1.36169597 L175.69249,1.36169597 L175.69249,4.2995446 C175.69249,4.2995446 178.976301,1.13891085 184.64551,1.20762028 C184.64551,1.20762028 194.797563,1.82288199 194.670864,12.4863772 C194.670864,12.4863772 195.088971,21.4383831 184.612107,23.1092715 C184.612107,23.1092715 188.322087,25.3204658 191.501083,26.8487301 C191.501083,26.8487301 201.565599,31.9571721 215.537054,31.234682 C215.537054,31.234682 217.492827,32.0904267 215.963224,33.3761259 C215.963224,33.3761259 199.93118,34.0934107 189.079978,28.188564 L180.478261,23.3507955 C180.478261,23.3507955 177.241675,22.8646242 175.508201,21.416521 L175.508201,28.769471 L171.019597,28.7361573 L171.019597,28.7361573 Z" id="Fill-10"></path>
                        <path d="M240.569341,0.601728034 C240.569341,0.601728034 243.505304,0.739146893 242.796941,3.4219378 L233.775965,28.8683709 C233.775965,28.8683709 232.632218,28.8360983 231.764905,28.8360983 L222.436396,1.28049391 L226.001248,1.2721655 L233.711464,24.5813189 L240.621172,4.97414628 C240.621172,4.97414628 241.72691,2.05087237 240.265263,2.11229443 C240.265263,2.11229443 239.248215,2.12999231 239.996891,4.8565074 L245.298673,24.7551746 L255.234186,1.28049391 L257.590789,1.25446761 L246.030072,28.8360983 L243.356721,28.8360983 C243.356721,28.8360983 236.293822,5.7018416 236.965327,3.19082426 C236.965327,3.19082426 237.059776,0.856785765 240.165055,0.601728034" id="Fill-11"></path>
                        <path d="M277.574692,28.7934152 L260.183513,28.7819636 L260.183513,1.1961687 L264.083542,1.20553817 L264.083542,27.5628918 L277.559719,27.5628918 L277.559719,28.6570374" id="Fill-12"></path>
                        <path d="M301.134966,28.789251 L301.11193,27.2589046 L285.84584,27.2255909 L285.84584,17.6895549 C285.84584,17.6895549 285.68689,16.8910681 286.648652,16.849426 L291.341126,16.849426 L291.333063,15.8437698 L286.641741,15.8344003 C285.758302,15.8031688 285.769821,15.0046819 285.769821,15.0046819 L285.769821,3.01488648 L300.438121,3.01488648 L300.438121,1.302356 L281.654403,1.31588968 L281.654403,15.9603676 L281.654403,28.8007025 L301.134966,28.789251" id="Fill-13"></path>
                        <path d="M210.442598,27.2786846 L210.476001,27.2453709 C216.103744,26.9122343 218.577832,23.521528 218.577832,23.521528 C224.380651,14.7308853 218.26454,6.91570818 218.26454,6.91570818 C215.462186,2.8368666 210.57736,2.91494549 210.57736,2.91494549 L210.543958,2.94825916 L210.402285,2.94825916 L210.368882,2.91494549 C210.368882,2.91494549 205.484056,2.8368666 202.680551,6.91570818 C202.680551,6.91570818 196.565591,14.7308853 202.36841,23.521528 C202.36841,23.521528 204.842498,26.9122343 210.46909,27.2453709 L210.503644,27.2786846 L210.442598,27.2786846 L210.442598,27.2786846 Z M210.490974,28.7569784 L210.234121,28.7278289 C197.15647,29.0744992 197.374162,15.265986 197.374162,15.265986 C197.79918,0.969219377 210.328569,1.22323606 210.328569,1.22323606 L210.396526,1.25759077 L210.548565,1.25759077 L210.617673,1.22323606 C210.617673,1.22323606 223.147063,0.969219377 223.57208,15.265986 C223.57208,15.265986 223.788621,29.0744992 210.712122,28.7278289 L210.454116,28.7569784 L210.490974,28.7569784 L210.490974,28.7569784 Z" id="Fill-14"></path>
                        <path d="M311.935488,28.5581374 L311.935488,19.4291528 L303.007809,1.13370559 L305.499174,1.13370559 L313.324571,16.9535312 L323.44207,1.08477614 L326.568083,1.09830982 L315.527984,18.7222785 L315.527984,28.5789585 L311.935488,28.5581374" id="Fill-15"></path>
                    </g>
                </g>
            </g>
        </g>
    </g>
</svg>