<?xml version="1.0" encoding="UTF-8" standalone="no"?>
<svg width="392px" height="22px" viewBox="0 0 392 22" version="1.1" xmlns="http://www.w3.org/2000/svg" xmlns:xlink="http://www.w3.org/1999/xlink" xmlns:sketch="http://www.bohemiancoding.com/sketch/ns">
    <!-- Generator: Sketch 3.4.4 (17249) - http://www.bohemiancoding.com/sketch -->
    <title>david-meister-logo</title>
    <desc>Created with Sketch.</desc>
    <defs></defs>
    <g id="Page-1" stroke="none" stroke-width="1" fill="none" fill-rule="evenodd" sketch:type="MSPage">
        <g id="Desktop" sketch:type="MSArtboardGroup" transform="translate(-80.000000, -1542.000000)" fill="#FFFFFF">
            <g id="Our-Brands" sketch:type="MSLayerGroup" transform="translate(42.000000, 557.000000)">
                <g id="David" transform="translate(0.000000, 926.000000)" sketch:type="MSShapeGroup">
                    <g id="david-meister-logo" transform="translate(37.617277, 58.000000)">
                        <path d="M0.593549989,1.96984615 L11.2754309,1.96984615 C17.6732537,1.96984615 20.9963261,5.71938462 20.9963261,12.0184615 C20.9963261,17.6806154 17.7661221,22.0689231 11.6085457,22.0689231 L0.593549989,22.0689231 L0.593549989,1.96984615 L0.593549989,1.96984615 Z M2.87084382,20.1544615 L11.1805437,20.1544615 C15.1193737,20.1544615 18.5393522,18.1883077 18.5393522,12.0184615 C18.5393522,6.70153846 16.2600395,3.88984615 11.1805437,3.88984615 L2.87084382,3.88984615 L2.87084382,20.1544615 L2.87084382,20.1544615 Z" id="Fill-3"></path>
                        <path d="M51.5580939,15.9618462 L39.9899258,15.9618462 L37.001987,22.0689231 L34.5369376,22.0689231 L44.5162491,1.96984615 L47.1589598,1.96984615 L57.128177,22.0689231 L54.4814285,22.0689231 L51.5580939,15.9618462 L51.5580939,15.9618462 Z M45.8083308,4.05415385 L40.9105339,14.0473846 L50.6374858,14.0473846 L45.8083308,4.05415385 L45.8083308,4.05415385 Z" id="Fill-4"></path>
                        <path d="M87.1105269,1.96984615 L89.5755763,1.96984615 L79.8466056,22.0689231 L77.3855939,22.0689231 L67.5657737,1.96984615 L70.2165599,1.96984615 L78.7059398,19.704 L87.1105269,1.96984615" id="Fill-5"></path>
                        <path d="M103.606775,1.96984615 L105.888107,1.96984615 L105.888107,22.0689231 L103.606775,22.0689231 L103.606775,1.96984615 Z" id="Fill-6"></path>
                        <path d="M122.416657,1.96984615 L133.090462,1.96984615 C139.494342,1.96984615 142.819433,5.71938462 142.819433,12.0184615 C142.819433,17.6806154 139.589229,22.0689231 133.429634,22.0689231 L122.416657,22.0689231 L122.416657,1.96984615 L122.416657,1.96984615 Z M124.687894,20.1544615 L132.995575,20.1544615 C136.942481,20.1544615 140.354384,18.1883077 140.354384,12.0184615 C140.354384,6.70153846 138.07709,3.88984615 132.995575,3.88984615 L124.687894,3.88984615 L124.687894,20.1544615 L124.687894,20.1544615 Z" id="Fill-7"></path>
                        <path d="M202.24913,1.96984615 L205.479334,1.96984615 L205.479334,22.0689231 L203.198003,22.0689231 L203.198003,4.70215385 L203.141474,4.70215385 L193.444805,22.0689231 L191.353248,22.0689231 L181.690901,4.67630769 L181.630334,4.67630769 L181.630334,22.0689231 L179.351022,22.0689231 L179.351022,1.96984615 L182.674094,1.96984615 L192.46565,19.4529231 L202.24913,1.96984615" id="Fill-8"></path>
                        <path d="M222.133055,1.96984615 L239.612496,1.96984615 L239.612496,3.88984615 L224.410349,3.88984615 L224.410349,10.6966154 L239.059324,10.6966154 L239.059324,12.6110769 L224.410349,12.6110769 L224.410349,20.1544615 L239.858799,20.1544615 L239.858799,22.0689231 L222.133055,22.0689231 L222.133055,1.96984615" id="Fill-9"></path>
                        <path d="M255.311288,1.96984615 L257.584544,1.96984615 L257.584544,22.0689231 L255.311288,22.0689231 L255.311288,1.96984615 Z" id="Fill-10"></path>
                        <path d="M289.01241,7.71876923 C288.705541,4.27938462 285.659055,3.38030769 282.113906,3.38030769 C278.574814,3.38030769 275.897782,4.64676923 275.897782,6.92676923 C275.897782,9.54646154 278.574814,10.1612308 283.932914,10.9772308 C287.930292,11.5993846 291.937764,12.4449231 291.937764,16.2978462 C291.937764,21.2270769 287.039967,22.5747692 282.761965,22.5747692 C277.189864,22.5747692 273.13192,20.8301538 272.790729,15.4264615 L275.070042,15.4264615 C275.46978,19.6504615 278.550587,20.6584615 282.761965,20.6584615 C286.058792,20.6584615 289.470695,19.8443077 289.470695,16.6633846 C289.470695,13.5987692 285.471299,13.2332308 281.467865,12.6424615 C276.234934,11.88 273.43677,10.5323077 273.43677,7.29046154 C273.43677,2.904 277.868206,1.46584615 282.113906,1.46584615 C286.613984,1.46584615 291.136269,2.93538462 291.289704,7.71876923 L289.01241,7.71876923" id="Fill-11"></path>
                        <path d="M313.414583,3.88984615 L304.798014,3.88984615 L304.798014,1.96984615 L324.310465,1.96984615 L324.310465,3.88984615 L315.693895,3.88984615 L315.693895,22.0689231 L313.414583,22.0689231 L313.414583,3.88984615" id="Fill-12"></path>
                        <path d="M338.872628,1.96984615 L356.35207,1.96984615 L356.35207,3.88984615 L341.147903,3.88984615 L341.147903,10.6966154 L355.796878,10.6966154 L355.796878,12.6110769 L341.147903,12.6110769 L341.147903,20.1544615 L356.596354,20.1544615 L356.596354,22.0689231 L338.872628,22.0689231 L338.872628,1.96984615" id="Fill-13"></path>
                        <path d="M372.169975,1.96984615 L384.143938,1.96984615 C387.86271,1.96984615 391.28067,3.18276923 391.28067,7.40676923 C391.28067,9.54646154 389.837172,11.6843077 386.976423,12.2750769 L386.976423,12.3304615 C390.083475,12.7809231 390.729516,14.6086154 390.882951,17.9058462 C390.941498,19.1667692 391.127235,21.6166154 391.654162,22.0689231 L389.187094,22.0689231 C388.787356,21.648 388.637959,20.1544615 388.603638,17.9593846 C388.543072,14.4147692 387.065253,13.2332308 383.277839,13.2332308 L374.449288,13.2332308 L374.449288,22.0689231 L372.169975,22.0689231 L372.169975,1.96984615 L372.169975,1.96984615 Z M374.449288,11.3187692 L384.077315,11.3187692 C386.572647,11.3187692 388.821677,10.4713846 388.821677,7.40676923 C388.821677,4.45107692 386.390948,3.88984615 384.297372,3.88984615 L374.449288,3.88984615 L374.449288,11.3187692 L374.449288,11.3187692 Z" id="Fill-14"></path>
                    </g>
                </g>
            </g>
        </g>
    </g>
</svg>