<?xml version="1.0" encoding="UTF-8" standalone="no"?>
<svg width="334px" height="53px" viewBox="0 0 334 53" version="1.1" xmlns="http://www.w3.org/2000/svg" xmlns:xlink="http://www.w3.org/1999/xlink" xmlns:sketch="http://www.bohemiancoding.com/sketch/ns">
    <!-- Generator: Sketch 3.4.4 (17249) - http://www.bohemiancoding.com/sketch -->
    <title>js-collections-logo</title>
    <desc>Created with Sketch.</desc>
    <defs></defs>
    <g id="Page-1" stroke="none" stroke-width="1" fill="none" fill-rule="evenodd" sketch:type="MSPage">
        <g id="Desktop" sketch:type="MSArtboardGroup" transform="translate(-106.000000, -1047.000000)" fill="#FFFFFF">
            <g id="Our-Brands" sketch:type="MSLayerGroup" transform="translate(42.000000, 557.000000)">
                <g id="JS-Collections" transform="translate(0.000000, 450.000000)" sketch:type="MSShapeGroup">
                    <g id="js-collections-logo" transform="translate(64.501360, 40.601027)">
                        <path d="M31.5875243,47.0069132 L31.5875243,28.4152146 L51.7268375,28.4152146 C50.595501,38.1018897 42.2045649,45.8147389 31.5875243,47.0069132 L31.5875243,47.0069132 Z M41.1037021,23.2152614 L41.1037021,23.2118059 L31.5875243,23.2138792 L31.5875243,5.35338082 C39.9205603,6.28846012 46.8777083,11.2409939 50.033261,18.0125438 L56.1363833,18.0125438 C52.3530722,7.5566571 41.5105261,0 28.7184245,0 C13.7824973,0 1.49473548,10.2983124 0.0144750123,23.4965455 L5.77400623,23.4965455 C7.1079929,14.0227339 15.3976039,6.52620386 25.8546575,5.35338082 L25.8546575,47.0069132 C15.3397039,45.8264879 7.01276255,38.2525529 5.75419832,28.6992631 L0,28.6992631 C1.39645777,41.9749011 13.7215498,52.360294 28.7184245,52.360294 C44.6546512,52.360294 57.577028,40.6389748 57.577028,26.1794559 C57.577028,25.1759562 57.5069384,24.187661 57.3865673,23.2138792 L41.1037021,23.2152614 L41.1037021,23.2152614 Z" id="Fill-2"></path>
                        <path d="M77.6342906,15.3317985 L77.6342906,14.1207577 C79.8774717,14.2432225 81.6708828,14.2999192 83.0183034,14.2999192 C84.4054095,14.2999192 86.0854331,14.2432225 88.0489254,14.1207577 L88.0489254,15.3317985 L86.0495271,15.8103184 C85.7188138,15.9078367 85.4939288,16.0121586 85.3862107,16.1210162 C85.2992803,16.1958558 85.2406968,16.3024455 85.2010112,16.4317139 C85.1008524,16.7288044 85.0441586,17.2889675 85.0290403,18.114471 C85.0158118,18.9399745 85.0082526,21.1624839 85.0082526,24.7819991 L85.023371,27.437671 C85.023371,29.9005743 84.9742364,31.4676702 84.8816367,32.1480302 C84.7247841,33.3046422 84.3846218,34.311575 83.8573703,35.1620251 C83.3244494,36.0192787 82.6082188,36.6860315 81.7011195,37.1645514 C80.7977997,37.647607 79.7924312,37.885733 78.6869038,37.885733 C77.7627963,37.885733 76.683726,37.663482 75.4534725,37.2144444 C75.6821371,35.7516704 75.827651,33.683376 75.8805651,31.0140969 L77.2884589,31.0140969 C77.422634,33.1912489 77.6947639,34.6041299 78.1029586,35.2640791 C78.3958761,35.7675455 78.7984014,36.0192787 79.3048653,36.0192787 C79.9436144,36.0192787 80.3536989,35.5566339 80.5370086,34.6404157 C80.6692939,34.0076809 80.7335468,30.6580418 80.7335468,24.6028377 C80.7335468,19.935568 80.7108693,17.3910215 80.6692939,16.9805376 C80.6258287,16.5745895 80.5256698,16.2979098 80.370707,16.1550342 C80.136373,15.9463904 79.2273839,15.6719786 77.6342906,15.3317985" id="Fill-3"></path>
                        <path d="M110.588455,21.2736093 L109.201349,21.2736093 C108.895203,19.1803684 108.430315,17.7765589 107.812353,17.0621808 C107.190612,16.3500707 106.349655,15.987212 105.283814,15.987212 C104.329469,15.987212 103.586782,16.2797668 103.051971,16.8694122 C102.52094,17.4522539 102.258259,18.1983821 102.258259,19.1032609 C102.258259,19.9151572 102.500152,20.6431424 102.991498,21.3008237 C103.482843,21.9653087 104.650734,22.7908122 106.49139,23.7773342 C108.333935,24.7593205 109.622772,25.8002713 110.354121,26.8888473 C111.08736,27.9910305 111.4502,29.360822 111.4502,30.9868824 C111.4502,32.9553908 110.824679,34.6789695 109.567968,36.1598864 C108.316927,37.6385355 106.287292,38.3778601 103.492292,38.3778601 C102.492593,38.3778601 101.547698,38.2894133 100.659497,38.1170554 C99.9829516,37.9968585 99.1457745,37.7451252 98.1441856,37.3618558 C98.3010382,35.4387048 98.3785196,33.5427682 98.3785196,31.6717782 L98.3785196,30.5718628 L99.7429482,30.5718628 C100.094449,32.7490149 100.530991,34.2004496 101.048793,34.9352384 C101.742346,35.9262961 102.70425,36.4274947 103.936393,36.4274947 C104.919084,36.4274947 105.705237,36.0850468 106.298631,35.3956153 C106.890135,34.7016481 107.186833,33.8285194 107.186833,32.7535506 C107.186833,32.0731906 107.065886,31.4744738 106.818323,30.9483287 C106.572651,30.4267194 106.206031,29.9481995 105.724135,29.5218406 C105.232789,29.0954816 104.354037,28.5353185 103.074649,27.8322799 C101.114936,26.7391681 99.799642,25.6868779 99.1325459,24.6663379 C98.4654499,23.6594051 98.130957,22.4733108 98.130957,21.1080551 C98.130957,19.0964573 98.762147,17.4273074 100.018858,16.1051411 C101.277458,14.7784391 103.095436,14.1207577 105.465234,14.1207577 C107.039429,14.1207577 108.747799,14.4745449 110.588455,15.1866551 C110.531762,16.9034302 110.505304,18.0940602 110.505304,18.760813 C110.505304,19.5364234 110.531762,20.3755341 110.588455,21.2736093" id="Fill-4"></path>
                        <path d="M138.865389,33.377214 L139.57217,34.9511135 C137.969628,36.1984402 136.491812,37.0806403 135.134943,37.6022496 C133.779963,38.1170554 132.356951,38.3778601 130.877245,38.3778601 C127.749642,38.3778601 125.285355,37.3255699 123.493834,35.2232575 C121.700423,33.1186772 120.808442,30.2815759 120.808442,26.7164894 C120.808442,22.9336878 121.8157,19.8879428 123.833996,17.5837902 C125.850402,15.2751019 128.641623,14.1207577 132.207657,14.1207577 C133.347201,14.1207577 134.445169,14.2250796 135.509121,14.4405269 C136.569293,14.6559743 137.880808,15.0483152 139.447444,15.6266212 C139.39075,16.3409992 139.362404,17.0780559 139.362404,17.842327 C139.362404,19.1667612 139.432326,20.7882859 139.57217,22.6978296 L138.04333,22.6978296 C137.578441,20.597785 137.274185,19.3686013 137.123002,19.0102783 C136.78473,18.1847749 136.223462,17.4953434 135.441089,16.923841 C134.654936,16.3591422 133.600433,16.073391 132.266241,16.073391 C130.236606,16.073391 128.66997,16.8059119 127.570112,18.2686859 C126.237809,20.0330862 125.570713,22.4642393 125.570713,25.5689489 C125.570713,28.7847839 126.23403,31.2295442 127.562552,32.9077656 C128.891075,34.5859869 130.680707,35.4250976 132.933337,35.4250976 C134.932735,35.4250976 136.911345,34.7447376 138.865389,33.377214" id="Fill-5"></path>
                        <path d="M146.403763,25.7299674 C146.403763,29.7123414 147.016055,32.6401573 148.234969,34.5066116 C149.145848,35.9081532 150.444134,36.6066562 152.137387,36.6066562 C153.305277,36.6066562 154.287968,36.2506011 155.091129,35.5430267 C155.89051,34.8286487 156.491464,33.6924474 156.890209,32.1208158 C157.287065,30.5491842 157.485493,28.7326229 157.485493,26.6507213 C157.485493,25.0632146 157.366437,23.5460118 157.122654,22.0923092 C156.88265,20.6340709 156.555716,19.4978697 156.138073,18.6814377 C155.724209,17.8604699 155.161051,17.2005207 154.465608,16.6970543 C153.766386,16.1935879 152.92165,15.9418547 151.931399,15.9418547 C150.829652,15.9418547 149.84885,16.3024455 148.987106,17.0304307 C148.123472,17.7584159 147.477163,18.9036886 147.050071,20.4594452 C146.617309,22.0197375 146.403763,23.7773342 146.403763,25.7299674 L146.403763,25.7299674 Z M141.596136,26.6167033 C141.596136,22.8679196 142.571268,19.8471212 144.521531,17.5565758 C146.468015,15.2660304 149.081596,14.1207577 152.360382,14.1207577 C155.453969,14.1207577 157.882349,15.1481013 159.647414,17.2141279 C161.410588,19.2733509 162.289341,22.0333447 162.289341,25.4895735 C162.289341,27.6871364 161.947288,29.6873948 161.251846,31.4903489 C160.703806,32.9213728 160.000804,34.1324136 159.133391,35.1143999 C158.267867,36.1009219 157.377775,36.831175 156.472566,37.3119627 C155.121366,38.0240729 153.494256,38.3778601 151.581788,38.3778601 C148.4145,38.3778601 145.957772,37.3459807 144.215385,35.2776863 C142.469219,33.2139276 141.596136,30.3246654 141.596136,26.6167033 L141.596136,26.6167033 Z" id="Fill-6"></path>
                        <path d="M164.27362,15.3317985 L164.27362,14.1207577 C166.637748,14.2432225 168.485963,14.2999192 169.805037,14.2999192 C171.156237,14.2999192 172.957207,14.2432225 175.206058,14.1207577 L175.206058,15.3317985 C173.29359,15.6719786 172.259875,15.8896938 172.093573,15.9894799 C171.815774,16.175445 171.67404,16.6539648 171.67404,17.4159681 L171.621125,21.6342001 L171.621125,35.2799541 L176.689543,35.2799541 C177.522941,35.2799541 178.080429,35.214186 178.358228,35.0826497 C178.741856,34.8944168 179.102806,34.5655761 179.461866,34.0825205 C179.815257,33.5994649 180.431328,32.4836745 181.328979,30.7328814 L182.58002,30.7328814 C181.960169,32.7603542 181.351656,34.9783279 180.760152,37.3958738 C176.825608,37.273409 173.548712,37.2144444 170.940801,37.2144444 C168.801558,37.2144444 166.582944,37.273409 164.27362,37.3958738 L164.27362,36.184833 C165.913958,35.7970277 166.817278,35.5362231 166.987359,35.3956153 C167.149881,35.2504719 167.25193,34.9873993 167.295395,34.5973263 C167.333191,34.209521 167.353979,31.590135 167.353979,26.7346324 L167.34075,20.7656072 L167.34075,19.7110492 C167.34075,17.9625239 167.291616,16.9125016 167.191457,16.565518 C167.117755,16.3024455 166.989249,16.1164804 166.809719,16.0166943 C166.630189,15.9101046 165.785453,15.6833179 164.27362,15.3317985" id="Fill-7"></path>
                        <path d="M183.171524,15.3317985 L183.171524,14.1207577 C185.537542,14.2432225 187.385757,14.2999192 188.702941,14.2999192 C190.054141,14.2999192 191.851331,14.2432225 194.103962,14.1207577 L194.103962,15.3317985 C192.191494,15.6719786 191.153999,15.8896938 190.991477,15.9894799 C190.711788,16.175445 190.575723,16.6539648 190.575723,17.4159681 L190.51525,21.6342001 L190.51525,35.2799541 L195.591227,35.2799541 C196.420845,35.2799541 196.982112,35.214186 197.259912,35.0826497 C197.639759,34.8944168 198.004489,34.5655761 198.35977,34.0825205 C198.71316,33.5994649 199.333012,32.4836745 200.223103,30.7328814 L201.477924,30.7328814 C200.854293,32.7603542 200.24956,34.9783279 199.658056,37.3958738 C195.723512,37.273409 192.450395,37.2144444 189.840594,37.2144444 C187.695682,37.2144444 185.477068,37.273409 183.171524,37.3958738 L183.171524,36.184833 C184.813752,35.7970277 185.713292,35.5362231 185.883373,35.3956153 C186.049675,35.2504719 186.149834,34.9873993 186.189519,34.5973263 C186.234874,34.209521 186.257552,31.590135 186.257552,26.7346324 L186.242434,20.7656072 L186.242434,19.7110492 C186.242434,17.9625239 186.189519,16.9125016 186.09125,16.565518 C186.013769,16.3024455 185.887153,16.1164804 185.705733,16.0166943 C185.529983,15.9101046 184.683357,15.6833179 183.171524,15.3317985" id="Fill-8"></path>
                        <path d="M202.069428,15.3317985 L202.069428,14.1207577 C204.30316,14.2432225 206.727761,14.2999192 209.348901,14.2999192 C212.389573,14.2999192 215.522846,14.2432225 218.744938,14.1207577 C218.775175,16.4113031 218.890452,18.3979543 219.09266,20.0897829 L217.911541,20.0897829 C217.800043,19.7427993 217.722562,19.475191 217.675317,19.2914938 C217.217988,17.7312015 216.862707,16.8285906 216.605696,16.5791252 C216.346794,16.327392 215.75907,16.2049272 214.85575,16.2049272 L209.539769,16.2049272 C209.462288,18.0441671 209.418823,20.7270534 209.399925,24.2422469 L211.820746,24.2762649 C213.086906,24.2762649 213.85983,24.1288535 214.154638,23.8385666 C214.449445,23.5482796 214.755591,22.573097 215.080635,20.9107507 L216.231517,20.9107507 C216.133248,22.5164003 216.076554,23.933817 216.076554,25.158465 C216.076554,26.3309521 216.133248,27.7891904 216.231517,29.5399835 L215.080635,29.5399835 C214.817954,27.7778511 214.572281,26.7618468 214.328498,26.5010421 C214.088495,26.2425053 213.360926,26.110969 212.138231,26.110969 L209.415043,26.110969 L209.415043,35.2799541 L214.94079,35.2799541 C215.549303,35.2799541 215.963167,35.2368647 216.161595,35.1484179 C216.486639,35.0032744 216.785226,34.7538091 217.051686,34.3886825 C217.620513,33.649358 218.27627,32.4791387 219.037856,30.8870963 L220.26244,30.8870963 C219.72385,32.6855146 219.143684,34.8581309 218.527612,37.3958738 C215.364103,37.273409 212.064529,37.2144444 208.625111,37.2144444 C207.056585,37.2144444 204.877657,37.273409 202.069428,37.3958738 L202.069428,36.184833 C203.605828,35.8514565 204.48836,35.5929197 204.705686,35.3956153 C205.011832,35.1438821 205.170574,34.5088795 205.170574,33.4906073 L205.170574,32.9327121 L205.195141,26.4398097 L205.195141,21.1874304 L205.180023,18.7630809 C205.180023,17.5928617 205.128999,16.8626086 205.02506,16.5813931 C204.926791,16.2979098 204.728363,16.0688552 204.435446,15.9078367 C204.144418,15.7445503 203.358265,15.5540495 202.069428,15.3317985" id="Fill-9"></path>
                        <path d="M239.01294,33.377214 L239.725391,34.9511135 C238.119069,36.1984402 236.643143,37.0806403 235.284384,37.6022496 C233.927514,38.1170554 232.506392,38.3778601 231.028576,38.3778601 C227.899083,38.3778601 225.444245,37.3255699 223.654614,35.2232575 C221.861203,33.1186772 220.967332,30.2815759 220.967332,26.7164894 C220.967332,22.9336878 221.97459,19.8879428 223.994776,17.5837902 C226.005513,15.2751019 228.796733,14.1207577 232.360878,14.1207577 C233.498532,14.1207577 234.59839,14.2250796 235.662342,14.4405269 C236.716845,14.6559743 238.034029,15.0483152 239.596885,15.6266212 C239.540192,16.3409992 239.515624,17.0780559 239.515624,17.842327 C239.515624,19.1667612 239.581767,20.7882859 239.725391,22.6978296 L238.196551,22.6978296 C237.731662,20.597785 237.425516,19.3686013 237.278113,19.0102783 C236.930391,18.1847749 236.371013,17.4953434 235.58675,16.923841 C234.808157,16.3591422 233.749874,16.073391 232.413792,16.073391 C230.389827,16.073391 228.821301,16.8059119 227.725222,18.2686859 C226.39292,20.0330862 225.729604,22.4642393 225.729604,25.5689489 C225.729604,28.7847839 226.385361,31.2295442 227.717663,32.9077656 C229.044296,34.5859869 230.830148,35.4250976 233.080888,35.4250976 C235.085956,35.4250976 237.060787,34.7447376 239.01294,33.377214" id="Fill-10"></path>
                        <path d="M261.616723,21.024144 L260.324106,21.024144 C259.685357,18.7154557 259.294171,17.4114323 259.150547,17.1052703 C259.003143,16.8013762 258.806605,16.5813931 258.545814,16.4566604 C258.286912,16.3319278 257.464854,16.2661596 256.072078,16.2661596 L254.728437,16.2661596 L254.728437,31.590135 C254.728437,33.4906073 254.781351,34.6404157 254.890959,35.0350245 C254.945763,35.2391325 255.083718,35.4069547 255.304823,35.5316873 C255.518369,35.6586879 256.363106,35.8764031 257.825803,36.184833 L257.825803,37.3958738 C254.998677,37.273409 253.186368,37.2144444 252.377538,37.2144444 C251.285239,37.2144444 249.612774,37.273409 247.365814,37.3958738 L247.365814,36.184833 C248.84552,35.8764031 249.728052,35.6314735 250.003961,35.4613835 C250.189161,35.3389187 250.313887,35.1393464 250.387589,34.8626667 C250.455621,34.5814512 250.491527,33.4361785 250.491527,31.4268486 L250.491527,16.2661596 L248.159526,16.2661596 C247.369593,16.2661596 246.851791,16.345535 246.594779,16.4997499 C246.339658,16.6539648 246.128001,16.9306446 245.963589,17.332057 C245.716027,17.9466489 245.356967,19.1781005 244.907196,21.024144 L243.644816,21.024144 C243.803559,19.4184944 243.896159,18.3117754 243.932065,17.6926478 C243.97364,17.0871274 244.013326,15.8896938 244.058681,14.1207577 C247.722984,14.2432225 251.311696,14.286312 254.809698,14.2659012 C257.774779,14.2341511 259.904573,14.1865259 261.199079,14.1207577 C261.206638,16.2298738 261.350263,18.5317585 261.616723,21.024144" id="Fill-11"></path>
                        <path d="M273.014049,14.1207577 L273.014049,15.3317985 L272.500026,15.4157096 C271.271662,15.5903353 270.528974,15.8103184 270.287081,16.0688552 C270.039519,16.3364635 269.916682,16.8421978 269.916682,17.5973974 L269.916682,18.1893106 L269.888335,23.6843516 L269.901564,29.9663424 L269.916682,33.1640345 C269.916682,34.1029313 269.954478,34.6925767 270.039519,34.9329705 C270.117,35.1756323 270.253065,35.3547937 270.447713,35.4749907 C270.776537,35.6836344 271.464421,35.8854745 272.500026,36.0827789 C272.611523,36.1031897 272.785384,36.1372078 273.014049,36.184833 L273.014049,37.3958738 C271.120479,37.273409 269.444235,37.2144444 268.002325,37.2144444 C266.628447,37.2144444 264.816138,37.273409 262.557839,37.3958738 L262.557839,36.184833 C263.99219,35.8650637 264.782122,35.6722951 264.923856,35.6087948 C265.133623,35.5090087 265.292365,35.3638652 265.405753,35.180168 C265.539928,34.9284348 265.617409,34.4158969 265.628748,33.6402865 C265.641977,31.8259931 265.653315,28.7326229 265.653315,24.3715153 L265.61363,18.4024901 L265.61363,17.9080951 C265.61363,17.0349664 265.505912,16.4725355 265.292365,16.2230702 C265.078819,15.9690691 264.362588,15.7218716 263.139894,15.4837456 C263.00005,15.4497276 262.801622,15.3998345 262.54272,15.3317985 L262.54272,14.1207577 C264.923856,14.2432225 266.709708,14.2999192 267.902166,14.2999192 C269.168325,14.2999192 270.872916,14.2432225 273.014049,14.1207577" id="Fill-12"></path>
                        <path d="M278.690979,25.7299674 C278.690979,29.7123414 279.303271,32.6401573 280.522186,34.5066116 C281.433065,35.9081532 282.733241,36.6066562 284.422713,36.6066562 C285.592494,36.6066562 286.578964,36.2506011 287.380235,35.5430267 C288.179617,34.8286487 288.77868,33.6924474 289.177426,32.1208158 C289.576172,30.5491842 289.77082,28.7326229 289.77082,26.6507213 C289.77082,25.0632146 289.653653,23.5460118 289.40987,22.0923092 C289.169867,20.6340709 288.841043,19.4978697 288.427179,18.6814377 C288.009535,17.8604699 287.450158,17.2005207 286.750935,16.6970543 C286.053602,16.1935879 285.208866,15.9418547 284.216726,15.9418547 C283.116868,15.9418547 282.134177,16.3024455 281.274323,17.0304307 C280.410688,17.7584159 279.76438,18.9036886 279.337287,20.4594452 C278.904525,22.0197375 278.690979,23.7773342 278.690979,25.7299674 L278.690979,25.7299674 Z M273.881463,26.6167033 C273.881463,22.8679196 274.860374,19.8471212 276.808748,17.5565758 C278.753342,15.2660304 281.370702,14.1207577 284.647598,14.1207577 C287.741185,14.1207577 290.169566,15.1481013 291.93463,17.2141279 C293.697805,19.2733509 294.576557,22.0333447 294.576557,25.4895735 C294.576557,27.6871364 294.232615,29.6873948 293.539062,31.4903489 C292.989133,32.9213728 292.288021,34.1324136 291.420607,35.1143999 C290.553193,36.1009219 289.663102,36.831175 288.759782,37.3119627 C287.408582,38.0240729 285.781473,38.3778601 283.869005,38.3778601 C280.701716,38.3778601 278.246878,37.3459807 276.502602,35.2776863 C274.756436,33.2139276 273.881463,30.3246654 273.881463,26.6167033 L273.881463,26.6167033 Z" id="Fill-13"></path>
                        <path d="M294.669157,15.3317985 L294.669157,14.1207577 C295.939096,14.2432225 297.122105,14.2999192 298.216293,14.2999192 C299.319931,14.2999192 300.614437,14.2432225 302.109262,14.1207577 C303.239356,15.9146403 306.63153,20.8744648 312.293342,28.9979633 L312.238538,20.0761757 C312.185624,17.8990237 312.119481,16.6879828 312.019322,16.4385175 C311.924833,16.1958558 311.76609,16.0030871 311.543095,15.8670151 C311.32199,15.7309431 310.539616,15.5540495 309.195975,15.3317985 L309.195975,14.1207577 C310.68324,14.2432225 311.987196,14.2999192 313.098393,14.2999192 C314.168014,14.2999192 315.541892,14.2432225 317.208687,14.1207577 L317.208687,15.3317985 C316.921439,15.3998345 316.707892,15.4406561 316.569938,15.4678705 C315.477639,15.6651749 314.825661,15.8760866 314.610225,16.1119447 C314.396679,16.345535 314.271952,16.8331263 314.237936,17.5656473 C314.141557,19.0941894 314.098092,22.2442563 314.098092,27.0158478 C314.098092,30.0752 314.149116,33.5745184 314.249275,37.5092671 C313.814623,37.663482 313.385641,37.8449114 312.956658,38.0490194 L307.693592,30.2022006 L299.665763,18.6542233 L299.720566,26.4556848 L299.835844,34.0485025 C299.86608,34.6132013 299.905766,34.9737921 299.971909,35.1212035 C300.034272,35.2686148 300.130651,35.3865439 300.249708,35.4749907 C300.451915,35.6178663 301.113342,35.8106349 302.220759,36.0487609 C302.349265,36.0737075 302.549583,36.1145291 302.802815,36.184833 L302.802815,37.3958738 C301.213501,37.273409 299.932223,37.2144444 298.96843,37.2144444 C298.142591,37.2144444 296.738477,37.273409 294.763646,37.3958738 L294.763646,36.184833 C295.049005,36.1145291 295.266331,36.0669039 295.413734,36.030618 C296.485245,35.8378493 297.116435,35.6450807 297.322422,35.4613835 C297.447149,35.3389187 297.539748,35.1665608 297.594552,34.942042 C297.655026,34.7197911 297.709829,33.0914628 297.779752,30.0615928 C297.88369,25.6800743 297.930935,21.9176835 297.930935,18.7812238 C297.930935,17.7266658 297.88369,17.0553772 297.787311,16.7628224 C297.690932,16.463464 297.511402,16.2344095 297.263839,16.0688552 C297.016276,15.9078367 296.381307,15.7173359 295.35893,15.4950849 C295.203967,15.4678705 294.975303,15.4111739 294.669157,15.3317985" id="Fill-14"></path>
                        <path d="M331.69393,21.2736093 L330.304934,21.2736093 C329.998788,19.1803684 329.537679,17.7765589 328.914048,17.0621808 C328.294197,16.3500707 327.45324,15.987212 326.385509,15.987212 C325.429275,15.987212 324.692257,16.2797668 324.159336,16.8694122 C323.624525,17.4522539 323.356175,18.1983821 323.356175,19.1032609 C323.356175,19.9151572 323.605627,20.6431424 324.093193,21.3008237 C324.584539,21.9653087 325.750539,22.7908122 327.596864,23.7773342 C329.43752,24.7593205 330.722578,25.8002713 331.453927,26.8888473 C332.183386,27.9910305 332.553785,29.360822 332.553785,30.9868824 C332.553785,32.9553908 331.926374,34.6789695 330.675333,36.1598864 C329.416733,37.6385355 327.392767,38.3778601 324.592098,38.3778601 C323.596178,38.3778601 322.653173,38.2894133 321.761192,38.1170554 C321.080867,37.9968585 320.24369,37.7451252 319.24777,37.3618558 C319.406513,35.4387048 319.487774,33.5427682 319.487774,31.6717782 L319.487774,30.5718628 L320.844643,30.5718628 C321.196144,32.7490149 321.630796,34.2004496 322.148599,34.9352384 C322.845931,35.9262961 323.809724,36.4274947 325.041868,36.4274947 C326.020779,36.4274947 326.810712,36.0850468 327.396547,35.3956153 C327.99561,34.7016481 328.290417,33.8285194 328.290417,32.7535506 C328.290417,32.0731906 328.165691,31.4744738 327.925688,30.9483287 C327.674346,30.4267194 327.307726,29.9481995 326.82583,29.5218406 C326.342044,29.0954816 325.455732,28.5353185 324.182013,27.8322799 C322.210962,26.7391681 320.901337,25.6868779 320.232351,24.6663379 C319.565255,23.6594051 319.236432,22.4733108 319.236432,21.1080551 C319.236432,19.0964573 319.863842,17.4273074 321.122443,16.1051411 C322.384823,14.7784391 324.193352,14.1207577 326.566929,14.1207577 C328.139234,14.1207577 329.847605,14.4745449 331.69393,15.1866551 C331.641016,16.9034302 331.612669,18.0940602 331.612669,18.760813 C331.612669,19.5364234 331.641016,20.3755341 331.69393,21.2736093" id="Fill-15"></path>
                    </g>
                </g>
            </g>
        </g>
    </g>
</svg>