<?xml version="1.0" encoding="UTF-8" standalone="no"?>
<svg width="352px" height="73px" viewBox="0 0 352 73" version="1.1" xmlns="http://www.w3.org/2000/svg" xmlns:xlink="http://www.w3.org/1999/xlink" xmlns:sketch="http://www.bohemiancoding.com/sketch/ns">
    <!-- Generator: Sketch 3.4.4 (17249) - http://www.bohemiancoding.com/sketch -->
    <title>ml-brides-logo</title>
    <desc>Created with Sketch.</desc>
    <defs>
        <path id="path-1" d="M0.759700989,0.729621608 L351.648138,0.729621608 L351.648138,72.3707771 L0.759700989,72.3707771"></path>
        <path id="path-3" d="M0.759700989,0.729621608 L351.648138,0.729621608 L351.648138,72.3707771 L0.759700989,72.3707771 L0.759700989,0.729621608 Z"></path>
        <path id="path-5" d="M0.759700989,0.729621608 L351.648138,0.729621608 L351.648138,72.3707771 L0.759700989,72.3707771"></path>
    </defs>
    <g id="Page-1" stroke="none" stroke-width="1" fill="none" fill-rule="evenodd" sketch:type="MSPage">
        <g id="Desktop" sketch:type="MSArtboardGroup" transform="translate(-580.000000, -1279.000000)">
            <g id="Our-Brands" sketch:type="MSLayerGroup" transform="translate(42.000000, 557.000000)">
                <g id="ML-Brides" transform="translate(479.492649, 691.000000)">
                    <g id="ml-brides-logo" transform="translate(58.213135, 31.000000)">
                        <path d="M129.592258,69.5837169 C129.408545,69.4571921 129.180355,69.3904151 128.952166,69.3745995 L127.020286,69.3745995 L127.020286,71.4745598 L128.368154,71.4745598 C129.133944,71.4745598 129.195826,71.4745598 129.501368,71.3199183 C129.824315,71.1389176 130.01963,70.80679 130.01963,70.4307301 C130.01963,70.0845442 129.870727,69.7629603 129.592258,69.5837169 L129.592258,69.5837169 Z M128.368154,66.5769955 L127.020286,66.5769955 L127.020286,68.495955 L128.261794,68.495955 C128.981173,68.495955 129.072062,68.4854113 129.348597,68.2868376 C129.592258,68.1075942 129.729558,67.8299425 129.729558,67.4960576 C129.729558,66.8265305 129.362134,66.5769955 128.368154,66.5769955 L128.368154,66.5769955 Z M128.952166,72.3496897 L125.856131,72.3496897 L125.856131,65.7001083 L128.551866,65.7001083 C130.12599,65.7001083 130.909184,66.2571689 130.909184,67.3414162 C130.909184,68.1075942 130.388989,68.7314317 129.636735,68.8561992 C130.617179,69.0002969 131.247602,69.6522511 131.247602,70.5414393 C131.247602,71.59757 130.296166,72.3496897 128.952166,72.3496897 L128.952166,72.3496897 Z" id="Fill-1" fill="#FFFFFF" sketch:type="MSShapeGroup"></path>
                        <path d="M139.597806,66.756239 C139.35608,66.5928111 139.263257,66.5769955 138.41818,66.5769955 L137.271429,66.5769955 L137.271429,68.7630629 L138.41818,68.7630629 C139.170434,68.7630629 139.323205,68.7314317 139.644218,68.4854113 C139.918819,68.2604783 140.042583,67.9933704 140.042583,67.6331261 C140.042583,67.2447653 139.889812,66.9530553 139.597806,66.756239 L139.597806,66.756239 Z M140.257236,72.3496897 L138.329225,69.6364355 L137.271429,69.6364355 L137.271429,72.3496897 L136.109208,72.3496897 L136.109208,65.7001083 L138.574819,65.7001083 C140.334589,65.7001083 141.297628,66.3696354 141.297628,67.5944658 C141.297628,68.6224798 140.611124,69.4009588 139.584269,69.5520857 L141.605104,72.3496897 L140.257236,72.3496897 L140.257236,72.3496897 Z" id="Fill-2" fill="#FFFFFF" sketch:type="MSShapeGroup"></path>
                        <path d="M146.252057,65.7001083 L147.414278,65.7001083 L147.414278,72.3496897 L146.252057,72.3496897 L146.252057,65.7001083 Z" id="Fill-3" fill="#FFFFFF" sketch:type="MSShapeGroup"></path>
                        <path d="M157.856869,67.0356479 C157.394687,66.6877047 156.918969,66.5769955 155.894048,66.5769955 L154.455292,66.5769955 L154.455292,71.4745598 L155.801225,71.4745598 C156.857087,71.4745598 157.363746,71.3462777 157.868472,70.9860334 C158.452483,70.5537404 158.833444,69.7629603 158.833444,69.0090834 C158.833444,68.2446627 158.464086,67.4960576 157.856869,67.0356479 L157.856869,67.0356479 Z M158.999752,71.4323848 C158.342256,72.0579797 157.410158,72.3496897 155.984938,72.3496897 L153.291136,72.3496897 L153.291136,65.7001083 L155.984938,65.7001083 C157.394687,65.7001083 158.342256,65.9935756 159.017156,66.6209277 C159.612771,67.176231 160.059482,68.191944 160.059482,69.0231417 C160.059482,69.8736695 159.645646,70.80679 158.999752,71.4323848 L158.999752,71.4323848 Z" id="Fill-4" fill="#FFFFFF" sketch:type="MSShapeGroup"></path>
                        <g id="Group-8">
                            <mask id="mask-2" sketch:name="Clip 6" fill="white">
                                <use xlink:href="#path-1"></use>
                            </mask>
                            <g id="Clip-6"></g>
                            <path d="M164.903683,72.3496897 L164.903683,65.7001083 L169.436541,65.7001083 L169.436541,66.5769955 L166.065905,66.5769955 L166.065905,68.495955 L168.854463,68.495955 L168.854463,69.3745995 L166.065905,69.3745995 L166.065905,71.4745598 L169.52743,71.4745598 L169.52743,72.3496897 L164.903683,72.3496897" id="Fill-5" fill="#FFFFFF" sketch:type="MSShapeGroup" mask="url(#mask-2)"></path>
                            <path d="M178.46358,67.0233469 C178.078751,66.7861129 177.912443,66.7316369 177.546953,66.6209277 C177.16019,66.5225195 176.839177,66.4803446 176.518164,66.4803446 C175.584133,66.4803446 175.017525,66.7861129 175.017525,67.2992412 C175.017525,67.4398244 175.048466,67.5645919 175.110348,67.6471844 C175.325002,67.9388944 175.568662,68.0654192 176.991948,68.6945287 C178.368823,69.3043079 178.815534,69.7629603 178.815534,70.5836143 C178.815534,71.7662697 177.802216,72.4762145 176.148806,72.4762145 C175.601537,72.4762145 175.081341,72.4059229 174.650101,72.2670971 C174.344558,72.1563879 174.127971,72.0579797 173.609709,71.7662697 L174.127971,70.8595086 C174.592086,71.1687915 174.789335,71.2795007 175.081341,71.3919672 C175.448766,71.5290357 175.876138,71.6133856 176.289974,71.6133856 C177.148587,71.6133856 177.651379,71.2795007 177.651379,70.7224401 C177.651379,70.2760887 177.405784,69.9843787 176.82564,69.7348437 L175.493243,69.1531811 C174.373566,68.6628975 173.872708,68.1075942 173.872708,67.3958921 C173.872708,66.2958293 174.911166,65.5911564 176.535569,65.5911564 C177.009353,65.5911564 177.481203,65.6456323 177.896973,65.7563416 C178.23539,65.8389341 178.415235,65.9215267 178.877416,66.1447024 L178.46358,67.0233469" id="Fill-7" fill="#FFFFFF" sketch:type="MSShapeGroup" mask="url(#mask-2)"></path>
                        </g>
                        <path d="M190.841917,72.3496897 L190.841917,67.0514635 C190.751028,67.3958921 190.704616,67.4960576 190.553779,67.8299425 L188.304755,72.3496897 L187.382326,72.3496897 L185.361491,68.1075942 C185.179713,67.7332916 185.133301,67.6102814 185.069485,67.230707 L185.069485,72.3496897 L183.909198,72.3496897 L183.909198,65.7001083 L185.394366,65.7001083 L187.767154,70.6134882 C187.858044,70.8208483 187.858044,70.8595086 187.902521,71.1389176 C187.950867,70.9315575 187.964403,70.8753242 188.055293,70.6134882 L190.51897,65.7001083 L191.990602,65.7001083 L191.990602,72.3496897 L190.841917,72.3496897" id="Fill-9" fill="#FFFFFF" sketch:type="MSShapeGroup"></path>
                        <path d="M200.03333,66.6613454 L198.782153,69.6364355 L201.276772,69.6364355 L200.03333,66.6613454 L200.03333,66.6613454 Z M202.440928,72.3496897 L201.597785,70.4992644 L198.459207,70.4992644 L197.631535,72.3496897 L196.469313,72.3496897 L199.457054,65.5331659 L200.599938,65.5331659 L203.585745,72.3496897 L202.440928,72.3496897 L202.440928,72.3496897 Z" id="Fill-10" fill="#FFFFFF" sketch:type="MSShapeGroup"></path>
                        <path d="M208.068323,65.7001083 L209.230545,65.7001083 L209.230545,72.3496897 L208.068323,72.3496897 L208.068323,65.7001083 Z" id="Fill-11" fill="#FFFFFF" sketch:type="MSShapeGroup"></path>
                        <g id="Group-15">
                            <mask id="mask-4" sketch:name="Clip 13" fill="white">
                                <use xlink:href="#path-3"></use>
                            </mask>
                            <g id="Clip-13"></g>
                            <path d="M219.667334,67.0356479 C219.20902,66.6877047 218.735236,66.5769955 217.710315,66.5769955 L216.267691,66.5769955 L216.267691,71.4745598 L217.615558,71.4745598 C218.673354,71.4745598 219.180013,71.3462777 219.682804,70.9860334 C220.264882,70.5537404 220.647777,69.7629603 220.647777,69.0090834 C220.647777,68.2446627 220.278419,67.4960576 219.667334,67.0356479 L219.667334,67.0356479 Z M220.816019,71.4323848 C220.158522,72.0579797 219.224491,72.3496897 217.801204,72.3496897 L215.103535,72.3496897 L215.103535,65.7001083 L217.801204,65.7001083 C219.20902,65.7001083 220.158522,65.9935756 220.831489,66.6209277 C221.427104,67.176231 221.871881,68.191944 221.871881,69.0231417 C221.871881,69.8736695 221.458045,70.80679 220.816019,71.4323848 L220.816019,71.4323848 Z" id="Fill-12" fill="#FFFFFF" sketch:type="MSShapeGroup" mask="url(#mask-4)"></path>
                            <path d="M230.666862,67.0233469 C230.285901,66.7861129 230.117659,66.7316369 229.750235,66.6209277 C229.369274,66.5225195 229.048261,66.4803446 228.725314,66.4803446 C227.791282,66.4803446 227.224675,66.7861129 227.224675,67.2992412 C227.224675,67.4398244 227.255616,67.5645919 227.315564,67.6471844 C227.530218,67.9388944 227.775812,68.0654192 229.199098,68.6945287 C230.575973,69.3043079 231.022684,69.7629603 231.022684,70.5836143 C231.022684,71.7662697 230.007432,72.4762145 228.35789,72.4762145 C227.806753,72.4762145 227.284623,72.4059229 226.859185,72.2670971 C226.549774,72.1563879 226.337055,72.0579797 225.814926,71.7662697 L226.337055,70.8595086 C226.793435,71.1687915 226.994551,71.2795007 227.284623,71.3919672 C227.655915,71.5290357 228.081354,71.6133856 228.493257,71.6133856 C229.35187,71.6133856 229.858529,71.2795007 229.858529,70.7224401 C229.858529,70.2760887 229.611,69.9843787 229.030857,69.7348437 L227.700393,69.1531811 C226.578782,68.6628975 226.07599,68.1075942 226.07599,67.3958921 C226.07599,66.2958293 227.114448,65.5911564 228.738851,65.5911564 C229.214569,65.5911564 229.688353,65.6456323 230.102189,65.7563416 C230.438672,65.8389341 230.624318,65.9215267 231.082632,66.1447024 L230.666862,67.0233469" id="Fill-14" fill="#FFFFFF" sketch:type="MSShapeGroup" mask="url(#mask-4)"></path>
                        </g>
                        <path d="M283.191158,18.3376568 C284.411394,18.3376568 285.248735,17.6452849 285.476925,16.6770187 C285.627762,16.0549385 285.248735,15.084915 283.951146,15.084915 C282.810196,15.084915 281.820084,15.7069952 281.669247,16.6084845 C281.442991,17.4379249 281.895503,18.3376568 283.191158,18.3376568" id="Fill-16" fill="#FFFFFF" sketch:type="MSShapeGroup"></path>
                        <path d="M315.4781,16.6084845 C315.24991,17.4379249 315.708223,18.3376568 317.00001,18.3376568 C318.220246,18.3376568 319.057588,17.6452849 319.283844,16.6770187 C319.440482,16.0549385 319.057588,15.084915 317.761933,15.084915 C316.619049,15.084915 315.632805,15.7069952 315.4781,16.6084845" id="Fill-17" fill="#FFFFFF" sketch:type="MSShapeGroup"></path>
                        <path d="M182.816593,36.4676068 C182.816593,35.5678748 183.576582,34.4607828 187.614383,34.1831312 C191.420127,33.9054795 195.914309,35.2902232 199.41451,36.882327 C198.499817,37.3831543 194.610919,38.9576852 190.826447,38.9629571 C184.303695,38.9752581 182.816593,37.4710188 182.816593,36.4676068 L182.816593,36.4676068 Z M226.830177,9.82534916 C230.030638,5.39698103 234.217343,1.45362465 237.491288,1.45362465 C238.175858,1.45362465 239.320676,1.86834484 239.320676,3.25133124 C239.167904,7.54263083 230.030638,15.5699267 219.444945,20.346238 C222.183225,16.4679014 224.468992,13.1483825 226.830177,9.82534916 L226.830177,9.82534916 Z M328.87749,23.3195709 C330.022307,23.3195709 330.173145,23.9416512 330.097726,24.5654888 C329.794117,26.087301 327.355579,29.0623912 320.50408,30.3786006 C322.408885,27.3332189 326.442819,23.3195709 328.87749,23.3195709 L328.87749,23.3195709 Z M351.112472,29.8250546 C348.219488,33.2833992 343.423631,38.3356049 340.530647,38.3356049 C339.615954,38.3356049 339.310411,37.5044073 339.310411,37.0211528 C339.310411,33.9757711 346.165778,28.5791367 346.165778,25.3263949 C346.165778,23.9416512 344.566515,23.3881052 342.661709,23.3195709 C341.671597,23.2510367 340.375942,23.3195709 340.451361,22.5569075 C340.987027,21.5903986 342.280748,20.2038976 342.433519,18.9597371 C342.433519,18.6820854 342.433519,18.3376568 341.975206,18.3376568 C340.987027,18.3376568 339.38583,20.7592009 339.463182,22.7660249 C338.70126,24.1490113 335.578152,27.9552992 333.980823,29.8250546 C331.163257,33.1463307 325.603545,38.4058965 321.037812,38.4058965 C318.904816,38.4058965 318.220246,37.1599786 318.295665,35.7752349 C318.371084,34.0460626 319.513967,32.1095302 320.123118,31.0709724 C323.627188,30.5174264 331.468799,27.8867649 331.468799,24.5654888 C331.468799,23.7342911 331.01242,22.7660249 328.73052,22.7660249 C325.234186,22.7660249 319.885259,25.8869701 317.235936,29.8285692 L317.230134,29.8250546 C315.095205,32.5242504 309.005627,38.4058965 306.338899,38.4058965 C305.42614,38.4058965 304.892407,37.989419 304.892407,37.0211528 C304.892407,36.1917124 305.120597,35.5678748 306.644442,33.2833992 L314.33715,22.9716277 L310.983918,22.9716277 C310.983918,22.9716277 308.381006,26.5810992 305.934732,29.8531712 C303.035947,33.3132731 297.729564,38.4058965 294.9178,38.4058965 C294.23323,38.4058965 293.622145,37.989419 293.622145,37.0211528 C293.622145,35.7752349 294.614191,34.4607828 295.451532,33.2833992 L318.752045,1.45362465 L315.480033,1.45362465 L295.300695,28.9938569 C295.126651,29.2328482 294.900395,29.5351019 294.649,29.8742587 C291.744413,33.3343606 286.4535,38.4058965 283.649471,38.4058965 C282.962968,38.4058965 282.353817,37.989419 282.353817,37.0211528 C282.353817,35.7752349 283.345863,34.4607828 284.18127,33.2833992 L307.48565,1.45362465 L304.209771,1.45362465 L284.028499,28.9938569 C283.856389,29.2363628 283.626266,29.5403738 283.369068,29.8865597 C281.193529,32.6121148 275.177436,38.4058965 272.53198,38.4058965 C271.615353,38.4058965 271.083554,37.989419 271.083554,37.0211528 C271.083554,36.1917124 271.313678,35.5678748 272.835589,33.2833992 L280.526363,22.9716277 L277.175065,22.9716277 C277.175065,22.9716277 274.552815,26.6057013 272.098806,29.8865597 C270.215272,32.2184821 264.204981,38.3356049 261.107013,38.4058965 C260.424377,38.4058965 259.813292,37.989419 259.813292,37.0211528 C259.813292,35.9123035 260.880757,34.3201997 261.642679,33.2166222 L269.256101,22.9716277 L265.986023,22.9716277 C264.537597,24.8413832 262.634725,27.4017531 261.186299,29.3400428 C258.063191,33.4204678 253.188049,38.3356049 250.372417,38.3356049 C249.384238,38.3356049 249.078696,37.6449904 249.078696,37.0211528 C249.078696,35.9123035 250.22158,34.4607828 250.449769,33.9757711 L258.59499,22.9716277 L255.321044,22.9716277 L250.215778,29.9058899 C247.597395,32.5734545 242.265873,38.3356049 238.796612,38.3356049 C237.808434,38.3356049 237.500958,37.7820589 237.500958,37.3655814 C237.500958,34.8772603 243.292728,30.3786006 245.042828,26.987033 C245.346437,26.3649527 245.572693,25.7411151 245.572693,25.1875691 C245.572693,23.873117 244.659933,22.7660249 242.755127,22.7660249 C239.179507,22.7660249 236.818322,25.1875691 233.697147,27.7496964 L253.039145,1.45362465 L249.761332,1.45362465 L228.524198,30.4313193 L228.522264,30.4278047 C224.030016,35.3411846 218.986632,38.4744308 211.676819,38.4058965 C209.391052,38.4058965 204.823385,36.7435011 202.688456,35.982595 C209.851299,33.0075049 213.807881,28.094125 218.681089,21.2442127 C230.179541,16.2622986 240.156083,7.33351345 240.538978,3.73634298 C240.765234,1.79981057 239.624284,0.829787078 237.491288,0.898321346 C229.800514,1.24450727 219.216756,15.084915 214.266194,22.2124789 C211.599466,23.3881052 208.478292,23.8028254 205.049641,23.873117 C201.44308,23.7360484 195.270349,23.2404929 191.433664,19.7540317 L190.969549,20.1019749 C193.307529,22.4251109 197.544513,24.2368758 205.049641,24.426663 C207.335408,24.426663 210.990315,24.0119428 213.577757,23.0419193 C209.391052,29.5474029 206.648905,33.2833992 201.930401,35.7067007 C196.521526,33.9757711 192.487592,33.6313424 188.830752,33.6313424 C184.717531,33.6313424 182.13009,34.5978514 182.13009,36.5361411 C182.13009,36.7909479 181.751062,39.4233668 190.810976,39.4233668 C194.860381,39.4233668 199.157313,37.6889226 200.027529,37.2285129 C209.476139,42.4072434 219.212888,39.9646118 225.805256,34.1427135 L222.27218,38.9594425 L225.625412,38.9594425 L229.887536,32.868679 C232.478845,29.2029743 238.875899,23.4583968 241.766949,23.4583968 C242.606224,23.4583968 243.136089,23.7342911 243.136089,24.426663 C243.136089,26.5037785 239.330345,29.8250546 237.044578,32.7316105 C236.20917,33.7701683 235.145573,35.1513974 235.145573,36.5361411 C235.145573,37.8505932 235.903628,39.096511 238.189395,39.096511 C241.358914,39.096511 245.131784,36.0036825 247.885533,33.3115158 C247.473631,34.0987813 247.096538,35.1021933 247.096538,36.2584894 C247.096538,37.9191274 248.013165,39.096511 249.838685,39.096511 C253.188049,39.096511 257.987773,34.1145969 259.283427,32.6595617 C258.444152,33.7701683 257.908486,35.1513974 257.908486,36.3990725 C257.908486,38.4058965 259.128722,39.096511 260.726052,39.096511 C263.170391,39.096511 266.720872,36.3129654 269.890392,33.1516026 C269.34699,34.2147624 269.029845,35.2550774 269.029845,36.1917124 C269.029845,37.7820589 269.940671,39.096511 272.0756,39.096511 C274.471595,39.096511 277.979532,36.4535485 281.094904,33.3501762 C280.626922,34.2534227 280.298173,35.1478828 280.298173,35.9123035 C280.298173,37.5044073 280.907324,39.096511 283.345863,39.096511 C285.562012,39.096511 288.820487,36.9034144 292.369034,33.3396325 C291.901051,34.2463936 291.566502,35.1461255 291.566502,35.9123035 C291.566502,37.5044073 292.177587,39.096511 294.614191,39.096511 C296.818738,39.096511 300.052073,36.9297738 303.579348,33.3993803 C303.113299,34.3746757 302.836764,35.3288836 302.836764,36.1917124 C302.836764,37.7820589 303.749524,39.096511 305.884453,39.096511 C308.574387,39.096511 312.670203,35.7629339 316.033104,32.1903655 C315.775907,32.9407279 315.632805,33.701634 315.632805,34.4607828 C315.632805,37.0211528 317.305553,39.096511 320.654917,39.096511 C323.627188,39.096511 328.802071,36.882327 334.591907,30.1712405 L334.58804,30.1677259 C335.959113,28.647671 338.625841,25.3949292 339.994981,23.4583968 C340.225105,23.5972226 340.606066,23.7342911 341.290636,23.8028254 C342.280748,23.9416512 343.49905,23.873117 343.49905,24.8413832 C343.49905,27.4702874 336.722969,32.3854246 336.722969,36.5361411 C336.722969,37.7820589 337.407539,39.096511 339.766791,39.096511 C344.566515,39.096511 350.277065,31.7633443 351.648138,30.1712405 L351.112472,29.8250546 L351.112472,29.8250546 Z" id="Fill-18" fill="#FFFFFF" sketch:type="MSShapeGroup"></path>
                        <g id="Group-22">
                            <mask id="mask-6" sketch:name="Clip 20" fill="white">
                                <use xlink:href="#path-5"></use>
                            </mask>
                            <g id="Clip-20"></g>
                            <path d="M113.274743,18.3745599 C114.491112,18.3745599 115.328453,17.6839453 115.558577,16.7156791 C115.709414,16.0935988 115.328453,15.1235753 114.034732,15.1235753 C112.893782,15.1235753 111.905604,15.7474129 111.748965,16.6471448 C111.522709,17.4783425 111.979089,18.3745599 113.274743,18.3745599" id="Fill-19" fill="#FFFFFF" sketch:type="MSShapeGroup" mask="url(#mask-6)"></path>
                            <path d="M114.949426,38.3742653 C113.804608,38.305731 113.425581,37.6818934 113.425581,36.7839188 C113.425581,32.2149675 122.792971,23.4267656 126.674134,23.3582313 C127.741599,23.3582313 128.426168,23.9117773 128.426168,24.8115092 C128.426168,25.7112412 127.969789,26.7497989 127.283285,27.7180652 C126.979676,28.2030769 126.979676,28.1345426 126.370525,28.9622257 C123.019227,33.3220596 118.0706,38.3742653 114.949426,38.3742653 L114.949426,38.3742653 Z M64.0050555,38.4445568 C62.6359159,38.4445568 61.9532799,37.6133592 61.9532799,36.5062671 C61.9532799,35.0529892 62.8641059,33.2535253 63.2470008,32.4926192 C65.3780628,28.4789713 69.6421205,23.3582313 72.9914846,23.3582313 C74.590748,23.3582313 75.0490617,24.5338576 74.9736429,25.7112412 C74.8962904,27.0256933 74.0589494,28.7566229 72.9179997,30.5560868 C70.4794615,34.4291516 66.7491362,38.4445568 64.0050555,38.4445568 L64.0050555,38.4445568 Z M169.86198,23.3582313 C171.006797,23.3582313 171.155701,23.9803116 171.080282,24.6041491 C170.776673,26.1259614 168.340069,29.1028088 161.484702,30.417261 C163.389508,27.3718792 167.425375,23.3582313 169.86198,23.3582313 L169.86198,23.3582313 Z M174.967246,29.8637149 C172.145813,33.184991 166.588034,38.4445568 162.018434,38.4445568 C159.889306,38.4445568 159.200869,37.198639 159.278221,35.8138953 C159.35364,34.084723 160.496523,32.1464333 161.105675,31.1096328 C164.605876,30.5560868 172.451355,27.9254252 172.451355,24.6041491 C172.451355,23.7729515 171.994976,22.8046853 169.711142,22.8046853 C166.216742,22.8046853 160.867816,25.9256304 158.216558,29.8672295 L158.21269,29.8637149 C156.383303,32.1464333 150.293726,38.3742653 147.170618,38.4445568 C146.486048,38.4445568 145.876897,38.0280794 145.876897,37.0598132 C145.876897,35.9527211 146.942428,34.3606173 147.70435,33.2535253 L155.317772,23.0120454 L152.045761,23.0120454 C150.597335,24.8800435 148.694463,27.4421708 147.24797,29.3787032 C144.126796,33.4608854 139.251654,38.3742653 136.434088,38.3742653 C135.443976,38.3742653 135.138433,37.6818934 135.138433,37.0598132 C135.138433,35.9527211 136.281317,34.4976859 136.511441,34.0144314 L144.658595,23.0120454 L141.384649,23.0120454 L136.445691,29.7196173 L136.319993,29.8848024 C133.577846,33.135787 127.849892,38.3320903 124.881489,38.3953528 C124.243331,38.4058965 123.357645,38.384809 122.992154,37.8962827 L127.283285,32.1464333 C128.654358,30.3469694 133.908528,23.1508712 133.985881,23.0120454 L131.015544,23.0120454 L129.188091,25.5724154 C129.263509,25.2262294 129.263509,25.0188693 129.263509,24.6726834 C129.263509,23.6358829 128.426168,22.8046853 126.370525,22.8046853 C122.311452,22.8046853 116.718864,25.9572616 113.560948,29.8971034 C113.560948,29.8971034 112.870577,30.6298929 112.468343,31.0762443 C109.820953,34.0126741 104.926473,38.4445568 102.613632,38.4445568 C101.698939,38.4445568 101.165206,38.0280794 101.165206,37.0598132 C101.165206,36.2286155 101.39533,35.6065352 102.917241,33.3220596 L110.609949,23.0120454 L107.258651,23.0120454 C107.258651,23.0120454 104.653805,26.6197596 102.207532,29.8918316 C99.4595833,33.1445734 94.0758479,38.305731 91.1151802,38.305731 C90.2024204,38.305731 89.9722967,37.5448249 89.9722967,37.0598132 C89.9722967,34.0144314 97.663071,28.6177971 97.663071,25.3650553 C97.663071,23.7729515 96.6748926,22.8046853 94.8474393,22.8046853 C91.3433701,22.8046853 88.6785758,25.0188693 85.6328203,27.7883567 L89.2103743,23.0120454 L86.0137814,23.0120454 L80.9781324,29.8742587 C78.9244229,32.2922883 76.5690387,34.4994432 73.6760544,34.5697347 C73.0688371,34.5697347 72.4616198,34.4976859 71.8505349,34.2938404 C74.0589494,31.7317131 76.1919451,28.8251572 76.1919451,25.850067 C76.1919451,23.9803116 75.0490617,22.8046853 72.7632947,22.8046853 C68.4644284,22.8046853 63.689844,26.1646217 61.18749,29.9586085 C60.3926928,30.8934863 53.9453603,38.3742653 50.3755414,38.3742653 C47.4090723,38.3742653 50.5302465,32.2852591 51.2148163,31.0393412 C55.9352538,21.1440472 68.9575507,0.729621608 68.9575507,0.729621608 L67.9674384,0.729621608 C67.8900859,0.799913166 48.7801457,16.6471448 33.2419582,33.3905939 C36.8968647,27.9957168 38.4207094,23.0823369 39.1806979,18.7225031 C40.4763526,12.4946711 40.4009339,6.9592109 41.7720073,3.36028315 C42.1529685,2.39201695 42.6093484,1.56081928 43.295852,0.799913166 L42.3057397,0.799913166 C24.7892615,18.7910373 19.9160527,39.8978348 7.35206955,40.0349033 C5.23647811,40.1280396 3.57726655,39.4901438 2.56394853,38.3320903 C2.09403197,37.7961172 1.52742475,36.9016572 1.76141613,35.9527211 L1.72660749,35.9140608 C1.10778733,36.2145572 0.525709614,36.8067635 0.664944151,37.5606405 C0.713289476,37.8259911 0.891200273,38.318032 1.42880029,38.7643834 C2.78827084,39.8995921 4.75302486,40.5866921 7.04652709,40.5866921 C15.0428439,40.5866921 21.2851923,32.4240849 27.9877882,21.629059 C31.1089624,16.7156791 35.2976014,9.10310341 41.0835699,3.01409723 C35.2221827,13.6702974 36.1368762,23.7729515 33.0137682,31.7317131 C31.8708847,34.8456291 29.1306717,38.7907428 29.1306717,38.7907428 L29.892594,38.7907428 C34.918574,30.2784351 66.0626326,3.08438879 66.0626326,3.08438879 C65.5327678,3.49910898 47.0281111,26.403613 46.7225687,35.6768268 C46.6452161,37.6818934 47.7900334,39.0666371 49.9191616,39.1369287 C53.1834379,39.1808609 57.3720769,35.2884659 59.8492914,32.6296877 C59.584359,33.4081667 59.4373892,34.1796166 59.4373892,34.9141634 C59.4373892,36.9912789 60.5802727,39.1369287 63.473257,39.1369287 C67.3563535,39.1369287 71.3168025,34.8456291 71.3168025,34.8456291 C71.9994385,35.1232807 73.0688371,35.2603493 73.7534069,35.191815 C75.511243,35.112737 77.0756977,34.3553455 78.5028517,33.251768 L74.2852055,38.9981029 L77.7892747,38.9981029 L82.0533324,32.9073394 C84.6407742,29.2398774 90.8096377,23.4970571 93.7045558,23.4970571 C94.6173155,23.4970571 95.1510479,23.7729515 95.1510479,24.4653233 C95.1510479,27.303345 87.3075023,32.9073394 87.3075023,36.5062671 C87.3075023,37.752185 88.1448434,39.1369287 90.4306104,39.1369287 C93.5150421,39.1369287 97.1989559,36.1020907 99.8192725,33.5118468 C99.3725617,34.4642974 99.1095632,35.3886314 99.1095632,36.2286155 C99.1095632,37.8207193 100.024257,39.1369287 102.157252,39.1369287 C104.711819,39.1369287 108.534968,36.1266927 111.795377,32.7632417 C111.420217,33.6401289 111.184292,34.5240452 111.139814,35.3991751 C111.064395,36.9912789 111.826318,39.1369287 114.415693,39.1369287 C117.84241,39.1369287 121.800925,34.9826976 121.800925,34.9826976 L101.317978,62.7338046 L104.439152,62.7338046 L122.456488,38.6150139 C123.065639,39.0754236 124.036413,39.1369287 124.508263,39.1369287 C127.579158,39.1369287 131.228263,36.1372365 133.840845,33.5575363 C133.47342,34.309656 133.160143,35.2410191 133.160143,36.298907 C133.160143,37.9595451 134.072902,39.1369287 135.90229,39.1369287 C139.251654,39.1369287 144.051378,34.1532573 145.345098,32.7017366 C144.507757,33.8088286 143.972091,35.191815 143.972091,36.4359756 C143.972091,38.4445568 145.190393,39.1369287 146.789657,39.1369287 C149.52987,39.1369287 153.662428,35.6364091 157.091079,32.0216658 C156.78747,32.8370478 156.611493,33.6682455 156.611493,34.4976859 C156.611493,37.0598132 158.286175,39.1369287 161.637473,39.1369287 C164.605876,39.1369287 169.786561,36.9209873 175.574463,30.2081436 L174.967246,29.8637149 L174.967246,29.8637149 Z" id="Fill-21" fill="#FFFFFF" sketch:type="MSShapeGroup" mask="url(#mask-6)"></path>
                        </g>
                    </g>
                </g>
            </g>
        </g>
    </g>
</svg>