<?xml version="1.0" encoding="UTF-8" standalone="no"?>
<svg width="201px" height="116px" viewBox="0 0 201 116" version="1.1" xmlns="http://www.w3.org/2000/svg" xmlns:xlink="http://www.w3.org/1999/xlink" xmlns:sketch="http://www.bohemiancoding.com/sketch/ns">
    <!-- Generator: Sketch 3.4.4 (17249) - http://www.bohemiancoding.com/sketch -->
    <title>monique-lhuillier-logo</title>
    <desc>Created with Sketch.</desc>
    <defs></defs>
    <g id="Page-1" stroke="none" stroke-width="1" fill="none" fill-rule="evenodd" sketch:type="MSPage">
        <g id="Desktop" sketch:type="MSArtboardGroup" transform="translate(-169.000000, -1254.000000)" fill="#FAF8F7">
            <g id="Our-Brands" sketch:type="MSLayerGroup" transform="translate(42.000000, 557.000000)">
                <g id="Monique-Lhullier" transform="translate(0.000000, 690.000000)" sketch:type="MSShapeGroup">
                    <g id="monique-lhuillier-logo" transform="translate(127.234908, 7.000000)">
                        <path d="M8.43860426,115.137684 L8.43860426,108.786526 C8.32860036,109.204211 8.27266617,109.318737 8.08808336,109.719579 L5.37527532,115.137684 L4.26777843,115.137684 L1.83091237,110.054737 C1.61090457,109.603368 1.55497038,109.453474 1.48039147,109.003789 L1.48039147,115.137684 L0.078307861,115.137684 L0.078307861,107.169684 L1.86820183,107.169684 L4.7301677,113.054316 C4.8401716,113.305263 4.8401716,113.354105 4.89424131,113.687579 C4.95203997,113.44 4.96882023,113.370947 5.07882413,113.054316 L8.05265837,107.169684 L9.82390761,107.169684 L9.82390761,115.137684 L8.43860426,115.137684" id="Fill-2"></path>
                        <path d="M20.7497187,108.087579 C18.8125314,108.087579 17.3340044,109.402947 17.3340044,111.152842 C17.3340044,112.902737 18.8125314,114.238316 20.7497187,114.238316 C22.686906,114.238316 24.1449238,112.902737 24.1449238,111.152842 C24.1449238,109.402947 22.686906,108.087579 20.7497187,108.087579 L20.7497187,108.087579 Z M20.7497187,115.287579 C17.9063976,115.287579 15.8573419,113.554526 15.8573419,111.152842 C15.8573419,108.771368 17.9063976,107.018105 20.7497187,107.018105 C23.5743951,107.018105 25.6402311,108.771368 25.6402311,111.152842 C25.6402311,113.554526 23.5743951,115.287579 20.7497187,115.287579 L20.7497187,115.287579 Z" id="Fill-3"></path>
                        <path d="M38.3745808,115.238737 L33.3927093,109.485474 C33.0962581,109.136842 32.9862542,108.968421 32.93032,108.752842 L32.93032,115.137684 L31.6401048,115.137684 L31.6401048,107.169684 L33.0421884,107.169684 L38.0240599,112.837053 C38.189998,113.005474 38.3372914,113.320421 38.3745808,113.571368 L38.3745808,107.169684 L39.6480158,107.169684 L39.6480158,115.238737 L38.3745808,115.238737" id="Fill-4"></path>
                        <path d="M46.7367417,107.169684 L48.1388253,107.169684 L48.1388253,115.136 L46.7367417,115.136 L46.7367417,107.169684 Z" id="Fill-5"></path>
                        <path d="M75.9530318,114.772211 C75.287415,115.120842 74.2917864,115.370105 73.4434513,115.370105 C72.5951161,115.370105 71.5976231,115.120842 70.915226,114.772211 C69.992312,114.272 69.6417911,113.470316 69.6417911,111.888842 L69.6417911,107.169684 L71.0252299,107.169684 L71.0252299,112.104421 C71.0252299,113.554526 71.8567849,114.304 73.4434513,114.304 C75.0301177,114.304 75.8598081,113.554526 75.8598081,112.104421 L75.8598081,107.169684 L77.2451115,107.169684 L77.2451115,111.888842 C77.2451115,113.470316 76.8945906,114.272 75.9530318,114.772211" id="Fill-6"></path>
                        <path d="M84.0373862,115.137684 L84.0373862,107.169684 L89.5002917,107.169684 L89.5002917,108.218947 L85.4394698,108.218947 L85.4394698,110.521263 L88.7992499,110.521263 L88.7992499,111.570526 L85.4394698,111.570526 L85.4394698,114.086737 L89.6084312,114.086737 L89.6084312,115.137684 L84.0373862,115.137684" id="Fill-7"></path>
                        <path d="M103.010262,115.137684 L103.010262,107.169684 L104.412346,107.169684 L104.412346,114.086737 L108.583172,114.086737 L108.583172,115.137684 L103.010262,115.137684" id="Fill-8"></path>
                        <path d="M120.801062,115.137684 L120.801062,111.570526 L115.228153,111.570526 L115.228153,115.137684 L113.824205,115.137684 L113.824205,107.169684 L115.228153,107.169684 L115.228153,110.521263 L120.801062,110.521263 L120.801062,107.169684 L122.186366,107.169684 L122.186366,115.137684 L120.801062,115.137684" id="Fill-9"></path>
                        <path d="M135.291746,114.772211 C134.627993,115.120842 133.6305,115.370105 132.778436,115.370105 C131.93383,115.370105 130.934473,115.120842 130.25394,114.772211 C129.331026,114.272 128.978641,113.470316 128.978641,111.888842 L128.978641,107.169684 L130.363944,107.169684 L130.363944,112.104421 C130.363944,113.554526 131.193634,114.304 132.778436,114.304 C134.366967,114.304 135.196658,113.554526 135.196658,112.104421 L135.196658,107.169684 L136.581961,107.169684 L136.581961,111.888842 C136.581961,113.470316 136.23144,114.272 135.291746,114.772211" id="Fill-10"></path>
                        <path d="M143.3761,107.169684 L144.778184,107.169684 L144.778184,115.136 L143.3761,115.136 L143.3761,107.169684 Z" id="Fill-11"></path>
                        <path d="M151.865045,115.137684 L151.865045,107.169684 L153.270858,107.169684 L153.270858,114.086737 L157.437955,114.086737 L157.437955,115.137684 L151.865045,115.137684" id="Fill-12"></path>
                        <path d="M162.680852,115.137684 L162.680852,107.169684 L164.082936,107.169684 L164.082936,114.086737 L168.253762,114.086737 L168.253762,115.137684 L162.680852,115.137684" id="Fill-13"></path>
                        <path d="M173.49666,107.169684 L174.898743,107.169684 L174.898743,115.136 L173.49666,115.136 L173.49666,107.169684 Z" id="Fill-14"></path>
                        <path d="M181.985605,115.137684 L181.985605,107.169684 L187.450375,107.169684 L187.450375,108.218947 L183.389553,108.218947 L183.389553,110.521263 L186.747468,110.521263 L186.747468,111.570526 L183.389553,111.570526 L183.389553,114.086737 L187.558514,114.086737 L187.558514,115.137684 L181.985605,115.137684" id="Fill-15"></path>
                        <path d="M197.785148,108.436211 C197.488697,108.235789 197.380557,108.218947 196.364419,108.218947 L194.980981,108.218947 L194.980981,110.837895 L196.364419,110.837895 C197.266824,110.837895 197.453272,110.804211 197.839217,110.502737 C198.171094,110.238316 198.320251,109.92 198.320251,109.485474 C198.320251,109.018947 198.135669,108.670316 197.785148,108.436211 L197.785148,108.436211 Z M198.577549,115.137684 L196.250687,111.888842 L194.980981,111.888842 L194.980981,115.137684 L193.578897,115.137684 L193.578897,107.169684 L196.549002,107.169684 C198.668908,107.169684 199.834203,107.969684 199.834203,109.436632 C199.834203,110.669474 199.004513,111.604211 197.766503,111.787789 L200.203369,115.137684 L198.577549,115.137684 L198.577549,115.137684 Z" id="Fill-16"></path>
                        <path d="M55.6116326,111.152842 C55.6116326,109.402947 57.0882952,108.087579 59.023618,108.087579 C60.9626698,108.087579 62.4206876,109.402947 62.4206876,111.152842 C62.4206876,112.902737 60.9626698,114.238316 59.023618,114.238316 C57.0882952,114.238316 55.6116326,112.902737 55.6116326,111.152842 L55.6116326,111.152842 Z M64.7046669,114.253474 L62.3367863,114.253474 C63.3156346,113.514105 63.9159948,112.436211 63.9159948,111.152842 C63.9159948,108.771368 61.8482944,107.018105 59.023618,107.018105 C56.1840258,107.018105 54.1349701,108.771368 54.1349701,111.152842 C54.1349701,113.554526 56.1840258,115.287579 59.023618,115.287579 C59.1597245,115.287579 59.2827797,115.265684 59.4132928,115.258947 L64.7046669,115.258947 L64.7046669,114.253474 L64.7046669,114.253474 Z" id="Fill-17"></path>
                        <path d="M92.131063,85.7886316 C83.0492156,85.8021053 80.9796507,83.7204211 80.9796507,82.3326316 C80.9796507,81.088 82.0349423,79.5587368 87.656328,79.1730526 C92.9588889,78.7873684 99.212331,80.7056842 104.087928,82.9069474 C102.812628,83.5991579 97.3963344,85.7785263 92.131063,85.7886316 L92.131063,85.7886316 Z M142.240636,45.4770526 C146.692997,39.3515789 152.519475,33.8930526 157.079976,33.8930526 C158.032721,33.8930526 159.621252,34.4690526 159.621252,36.384 C159.410567,42.3191579 146.692997,53.4214737 131.959933,60.0269474 C135.774644,54.6694737 138.955435,50.0715789 142.240636,45.4770526 L142.240636,45.4770526 Z M107.587543,81.28 C100.058802,78.8867368 94.4411449,78.4084211 89.3511339,78.4084211 C83.6290666,78.4084211 80.0213116,79.7456842 80.0213116,82.4303158 C80.0213116,82.7823158 79.4955302,86.4235789 92.1049603,86.4235789 C97.7449908,86.4235789 103.729949,84.0218947 104.939992,83.3869474 C120.409523,91.8113684 150.298888,103.538526 160.137711,91.3869474 L159.500062,90.9103158 C152.961355,98.5835789 141.090256,95.84 129.996643,91.904 C122.229249,89.1503158 111.61294,82.7166316 108.646564,81.6623158 C118.606578,77.5477895 124.116095,70.7503158 130.899048,61.2715789 C146.903683,54.3797895 160.784683,42.0294737 161.317923,37.0526316 C161.638612,34.3713684 160.042623,33.0324211 157.079976,33.1267368 C146.372308,33.6050526 131.639243,52.7528421 124.753745,62.6138947 C121.043444,64.2408421 116.814819,64.8134737 112.049227,64.9077895 C104.826259,64.6349474 99.5982769,63.4694737 100.388813,54.0412632 C100.810184,49.0442105 105.624253,40.0252632 106.342075,38.6677895 C113.941667,24.1903158 129.053219,0.636631579 129.053219,0.636631579 L127.680967,0.636631579 C127.574692,0.732631579 101.032057,22.6071579 79.4601053,45.7229474 C84.5370649,38.272 86.6513772,31.4896842 87.7103978,25.472 C89.5058851,16.8741053 89.3996102,9.23452632 91.303237,4.26610526 C91.8327473,2.92884211 92.4685326,1.78189474 93.4175493,0.732631579 L92.0452972,0.732631579 C67.7232485,25.5663158 60.9533474,54.7031579 43.5056102,54.8934737 C40.5727944,55.0214737 38.2645769,54.1372632 36.8606289,52.544 C36.2043344,51.8029474 35.4175269,50.5667368 35.7438096,49.2581053 L35.6934688,49.2058947 C34.8395403,49.6185263 34.0284946,50.4353684 34.2205353,51.4762105 C34.2895208,51.8450526 34.5356312,52.5204211 35.2814203,53.1402105 C37.1701314,54.7065263 39.8978552,55.6547368 43.0842393,55.6547368 C54.1871754,55.6547368 62.8569743,44.3856842 72.1625584,29.4837895 C76.4993223,22.7014737 82.3146132,12.1936842 90.3504914,3.78778947 C82.2083383,18.4976842 83.4780443,32.4446316 79.1431449,43.4290526 C77.5564784,47.7288421 73.7510893,53.1722105 73.7510893,53.1722105 L74.8082454,53.1722105 C81.7869674,41.4248421 125.037145,3.88210526 125.037145,3.88210526 C124.390173,4.384 104.688288,28.5962105 99.452848,43.2353684 C99.2813165,43.7170526 97.4298949,48.6501053 96.803432,53.9435789 C96.1359507,59.5755789 98.0116104,65.8004211 111.931765,65.6741053 C115.108827,65.6454737 120.196973,65.1014737 123.799135,63.7625263 C117.972657,72.7612632 114.156081,77.9334737 107.587543,81.2833684 L107.587543,81.28 L107.587543,81.28 Z" id="Fill-18"></path>
                    </g>
                </g>
            </g>
        </g>
    </g>
</svg>