<?xml version="1.0" encoding="UTF-8" standalone="no"?>
<svg width="372px" height="89px" viewBox="0 0 372 89" version="1.1" xmlns="http://www.w3.org/2000/svg" xmlns:xlink="http://www.w3.org/1999/xlink" xmlns:sketch="http://www.bohemiancoding.com/sketch/ns">
    <!-- Generator: Sketch 3.4.4 (17249) - http://www.bohemiancoding.com/sketch -->
    <title>theia-logo</title>
    <desc>Created with Sketch.</desc>
    <defs></defs>
    <g id="Page-1" stroke="none" stroke-width="1" fill="none" fill-rule="evenodd" sketch:type="MSPage">
        <g id="Desktop" sketch:type="MSArtboardGroup" transform="translate(-88.000000, -732.000000)" fill="#FFFFFF">
            <g id="Our-Brands" sketch:type="MSLayerGroup" transform="translate(42.000000, 557.000000)">
                <g id="THEIA" transform="translate(0.000000, 98.000000)" sketch:type="MSShapeGroup">
                    <g id="theia-logo" transform="translate(46.763608, 77.059686)">
                        <path d="M34.7159716,86.4347974 L34.7159716,4.46330552 L2.23460986,4.46330552 C0.998700789,4.46330552 0,3.55586752 0,2.43685704 C0,1.32029249 0.998700789,0.409185603 2.23460986,0.409185603 L36.9519292,0.409185603 L71.666553,0.409185603 C72.8997665,0.409185603 73.8984673,1.32029249 73.8984673,2.43685704 C73.8984673,3.55586752 72.8997665,4.46330552 71.666553,4.46330552 L39.1824957,4.46330552 L39.1824957,86.4347974 C39.1824957,87.5525849 38.1837949,88.4600229 36.9519292,88.4600229 C35.7160201,88.4600229 34.7159716,87.5525849 34.7159716,86.4347974" id="Fill-1"></path>
                        <path d="M345.876298,42.4044869 L329.713788,7.65279111 L313.553973,42.4044869 L345.876298,42.4044869 Z M289.791364,88.2985919 C288.653842,87.8693321 288.118776,86.6769439 288.601279,85.6472097 L327.654388,1.64804638 C327.999419,0.898370509 328.81617,0.409185603 329.713788,0.409185603 C330.611405,0.409185603 331.421418,0.898370509 331.766448,1.64804638 L370.830339,85.6472097 C371.307452,86.6769439 370.775081,87.8693321 369.636211,88.2985919 C368.495994,88.7364124 367.191349,88.2533423 366.711541,87.2236081 L347.756443,46.4598298 L311.668437,46.4598298 L292.717382,87.2236081 C292.354831,87.9977432 291.527297,88.4612459 290.65933,88.4612459 C290.366863,88.4612459 290.075744,88.4086585 289.791364,88.2985919 L289.791364,88.2985919 Z" id="Fill-14"></path>
                        <path d="M86.257558,86.4347974 L86.257558,86.4347974 C86.257558,87.5525849 87.254911,88.4600229 88.4921679,88.4600229 C89.7240336,88.4600229 90.7227344,87.5525849 90.7227344,86.4347974 L90.7227344,46.4573838 L148.741724,46.4573838 L148.741724,86.4335744 C148.741724,87.551362 149.740425,88.4588 150.97903,88.4588 C152.209548,88.4588 153.209596,87.551362 153.209596,86.4335744 L153.209596,2.43441112 C153.209596,1.3166236 152.209548,0.409185603 150.97903,0.409185603 C149.740425,0.409185603 148.741724,1.3166236 148.741724,2.43441112 L148.741724,42.4032639 L90.7227344,42.4032639 L90.7227344,2.43441112 C90.7227344,1.3166236 89.7240336,0.409185603 88.4921679,0.409185603 C87.254911,0.409185603 86.257558,1.3166236 86.257558,2.43441112 L86.257558,86.4347974 Z" id="Fill-4"></path>
                        <path d="M166.667244,42.3934802 C166.035138,42.3934802 165.438074,42.1550026 165.009481,41.7343036 C164.587628,41.3062668 164.380071,40.7400352 164.438025,40.1725808 C166.804717,17.8510735 187.521356,0.409185603 212.738214,0.409185603 C234.241954,0.409185603 252.474645,13.0974191 258.838836,30.6811706 C259.225647,31.7414789 258.589497,32.8910634 257.418282,33.2408306 C256.243022,33.5893749 254.980158,33.0060219 254.596042,31.9469365 C248.815438,15.9909478 232.262073,4.45963663 212.736866,4.46208256 C190.687278,4.45963663 172.416849,19.162089 169.191625,38.3405833 L244.553775,38.3405833 C245.791032,38.3405833 246.793776,39.2455754 246.793776,40.3707006 C246.793776,41.4884882 245.791032,42.3934802 244.553775,42.3934802 L166.667244,42.3934802 Z" id="Fill-6"></path>
                        <path d="M166.657469,46.8841977 C166.028058,46.8841977 165.428299,47.1226753 165.00375,47.5507121 C164.580548,47.9714111 164.378382,48.5351967 164.439032,49.1038742 C166.669599,70.1657304 185.256755,86.8652801 208.546295,88.6740413 L217.135661,88.6556969 C236.697258,87.0585082 252.912331,74.9450669 258.835799,58.5903925 C259.222611,57.5251924 258.579722,56.3792767 257.416593,56.0282866 C256.239986,55.6785193 254.978469,56.2594264 254.591658,57.3197347 C248.813749,73.2634938 232.259037,84.7886902 212.73383,84.7789065 C190.68559,84.7886902 172.419204,70.0947985 169.187241,50.9334257 L244.554782,50.9334257 C245.786648,50.9334257 246.789392,50.0296566 246.789392,48.9045313 C246.789392,47.7940816 245.786648,46.8817518 244.554782,46.8817518 L166.657469,46.8817518 L166.657469,46.8841977 Z" id="Fill-8"></path>
                        <path d="M244.55478,50.9370946 L244.55478,50.9370946 C245.789342,50.9370946 246.792086,50.0321026 246.792086,48.9069773 C246.792086,47.7940816 245.789342,46.8817518 244.55478,46.8817518 L166.657467,46.8817518 C166.028056,46.8817518 165.428296,47.1226753 165.005095,47.5507121 C164.580546,47.9714111 164.37838,48.5351967 164.43903,49.1050972 C166.803026,71.4143748 187.518318,88.8318034 212.733828,88.8366953 C234.232177,88.8318034 252.470259,76.1606914 258.83445,58.5928384 C259.221261,57.5251924 258.57972,56.3804997 257.415243,56.0295095 C256.238636,55.6834112 254.978467,56.2618723 254.591656,57.3221806 C248.811052,73.2659397 232.257687,84.7886902 212.73248,84.7837983 C190.682892,84.7886902 172.419202,70.0984674 169.187239,50.9370946 L244.55478,50.9370946 Z" id="Fill-10"></path>
                        <path d="M272.250417,86.4347974 L272.250417,2.43685704 C272.250417,1.3166236 273.250466,0.409185603 274.485027,0.409185603 C275.716893,0.409185603 276.715594,1.3166236 276.715594,2.43685704 L276.715594,86.4347974 C276.715594,87.5525849 275.716893,88.4600229 274.485027,88.4600229 C273.250466,88.4600229 272.250417,87.5525849 272.250417,86.4347974" id="Fill-12"></path>
                    </g>
                </g>
            </g>
        </g>
    </g>
</svg>